<svg width="25" height="24" viewBox="0 0 25 24" fill="none" xmlns="http://www.w3.org/2000/svg">
<path d="M17.42 0C17.4758 0 17.5317 0 17.5907 0C17.7277 1.69253 17.0817 2.95719 16.2965 3.87301C15.5262 4.78251 14.4712 5.6646 12.765 5.53076C12.6512 3.86247 13.2983 2.69161 14.0823 1.77789C14.8095 0.92636 16.1427 0.168621 17.42 0Z" fill="black"/>
<path d="M22.5839 17.6166C22.5839 17.6335 22.5839 17.6482 22.5839 17.6641C22.1044 19.1163 21.4204 20.3609 20.5858 21.516C19.8238 22.5646 18.8901 23.9757 17.2228 23.9757C15.7822 23.9757 14.8252 23.0494 13.3488 23.0241C11.7869 22.9988 10.928 23.7987 9.49999 24C9.33664 24 9.17329 24 9.0131 24C7.96449 23.8482 7.11822 23.0178 6.5017 22.2695C4.68376 20.0585 3.27894 17.2025 3.01758 13.5476C3.01758 13.1893 3.01758 12.832 3.01758 12.4737C3.12824 9.85797 4.39921 7.73124 6.08858 6.70054C6.98017 6.15253 8.20583 5.68566 9.5706 5.89432C10.1555 5.98496 10.7531 6.1852 11.2768 6.38333C11.7732 6.57408 12.3939 6.91237 12.982 6.89446C13.3804 6.88286 13.7766 6.67525 14.1782 6.52876C15.3543 6.10405 16.5072 5.61715 18.0269 5.84585C19.8533 6.12196 21.1496 6.93345 21.9505 8.18546C20.4055 9.16873 19.1841 10.6505 19.3928 13.1808C19.5782 15.4794 20.9146 16.8241 22.5839 17.6166Z" fill="black"/>
</svg>
