<svg width="24" height="24" viewBox="0 0 24 24" fill="none" xmlns="http://www.w3.org/2000/svg">
<mask id="mask0_129_112" style="mask-type:luminance" maskUnits="userSpaceOnUse" x="1" y="1" width="22" height="22">
<path d="M1 0.999998H23V23H1V0.999998Z" fill="white"/>
</mask>
<g mask="url(#mask0_129_112)">
<path d="M6.5 11.6562C6.5 10.3748 5.46115 9.33594 4.17969 9.33594C2.89823 9.33594 1.85938 10.3748 1.85938 11.6562V19.8203C1.85938 21.1018 2.89823 22.1406 4.17969 22.1406C5.46115 22.1406 6.5 21.1018 6.5 19.8203V11.6562Z" stroke="white" stroke-miterlimit="10" stroke-linecap="round" stroke-linejoin="round"/>
<path d="M14.3203 16.2969C14.3203 15.0154 13.2815 13.9766 12 13.9766C10.7185 13.9766 9.67969 15.0154 9.67969 16.2969V19.8203C9.67969 21.1018 10.7185 22.1406 12 22.1406C13.2815 22.1406 14.3203 21.1018 14.3203 19.8203V16.2969Z" fill="#F97968" stroke="#F97968" stroke-miterlimit="10" stroke-linecap="round" stroke-linejoin="round"/>
<path d="M22.1406 12.3008C22.1406 11.0193 21.1018 9.98047 19.8203 9.98047C18.5389 9.98047 17.5 11.0193 17.5 12.3008V19.8203C17.5 21.1018 18.5389 22.1406 19.8203 22.1406C21.1018 22.1406 22.1406 21.1018 22.1406 19.8203V16.168V12.3008Z" stroke="white" stroke-miterlimit="10" stroke-linecap="round" stroke-linejoin="round"/>
<path d="M1.85938 6.6289L3.23257 5.27062C4.01099 4.57053 5.18077 4.53349 6.00195 5.18292L11.4827 10.1617C12.3717 10.8648 13.654 10.7563 14.4123 9.91373L19.1758 4.91015" stroke="white" stroke-miterlimit="10" stroke-linecap="round" stroke-linejoin="round"/>
<path d="M22.1406 5.89844V3.57812C22.1406 2.6289 21.3711 1.85938 20.4219 1.85938H18.1016" stroke="white" stroke-miterlimit="10" stroke-linecap="round" stroke-linejoin="round"/>
</g>
</svg>
