<svg width="1440" height="1995" viewBox="0 0 1440 1995" fill="none" xmlns="http://www.w3.org/2000/svg">
<g opacity="0.04">
<path d="M719.502 1994.21C1174.07 1994.21 1542.57 1548.06 1542.57 997.711C1542.57 447.36 1174.07 1.21289 719.502 1.21289C264.932 1.21289 -103.57 447.36 -103.57 997.711C-103.57 1548.06 264.932 1994.21 719.502 1994.21Z" stroke="#080C1D" stroke-miterlimit="10"/>
<path d="M719.499 1955.7C1156.5 1955.7 1510.76 1526.79 1510.76 997.712C1510.76 468.629 1156.5 39.7227 719.499 39.7227C282.496 39.7227 -71.7656 468.629 -71.7656 997.712C-71.7656 1526.79 282.496 1955.7 719.499 1955.7Z" stroke="#080C1D" stroke-miterlimit="10"/>
<path d="M719.503 1917.18C1138.94 1917.18 1478.95 1505.52 1478.95 997.711C1478.95 489.902 1138.94 78.2422 719.503 78.2422C300.071 78.2422 -39.9453 489.902 -39.9453 997.711C-39.9453 1505.52 300.071 1917.18 719.503 1917.18Z" stroke="#080C1D" stroke-miterlimit="10"/>
<path d="M719.501 1878.67C1121.37 1878.67 1447.14 1484.25 1447.14 997.71C1447.14 511.169 1121.37 116.75 719.501 116.75C317.636 116.75 -8.14062 511.169 -8.14062 997.71C-8.14062 1484.25 317.636 1878.67 719.501 1878.67Z" stroke="#080C1D" stroke-miterlimit="10"/>
<path d="M719.506 1840.16C1103.81 1840.16 1415.34 1462.98 1415.34 997.711C1415.34 532.438 1103.81 155.26 719.506 155.26C335.208 155.26 23.6719 532.438 23.6719 997.711C23.6719 1462.98 335.208 1840.16 719.506 1840.16Z" stroke="#080C1D" stroke-miterlimit="10"/>
<path d="M719.504 1801.65C1086.24 1801.65 1383.53 1441.72 1383.53 997.711C1383.53 553.706 1086.24 193.77 719.504 193.77C352.772 193.77 55.4766 553.706 55.4766 997.711C55.4766 1441.72 352.772 1801.65 719.504 1801.65Z" stroke="#080C1D" stroke-miterlimit="10"/>
<path d="M719.5 1763.13C1068.66 1763.13 1351.71 1420.44 1351.71 997.711C1351.71 574.98 1068.66 232.289 719.5 232.289C370.339 232.289 87.2891 574.98 87.2891 997.711C87.2891 1420.44 370.339 1763.13 719.5 1763.13Z" stroke="#080C1D" stroke-miterlimit="10"/>
<path d="M719.498 1724.62C1051.09 1724.62 1319.9 1399.17 1319.9 997.711C1319.9 596.249 1051.09 270.799 719.498 270.799C387.904 270.799 119.094 596.249 119.094 997.711C119.094 1399.17 387.904 1724.62 719.498 1724.62Z" stroke="#080C1D" stroke-miterlimit="10"/>
<path d="M719.503 1686.11C1033.53 1686.11 1288.1 1377.91 1288.1 997.712C1288.1 617.517 1033.53 309.309 719.503 309.309C405.476 309.309 150.906 617.517 150.906 997.712C150.906 1377.91 405.476 1686.11 719.503 1686.11Z" stroke="#080C1D" stroke-miterlimit="10"/>
<path d="M719.5 1647.6C1015.96 1647.6 1256.29 1356.64 1256.29 997.71C1256.29 638.784 1015.96 347.816 719.5 347.816C423.04 347.816 182.711 638.784 182.711 997.71C182.711 1356.64 423.04 1647.6 719.5 1647.6Z" stroke="#080C1D" stroke-miterlimit="10"/>
<path d="M719.504 1609.08C998.393 1609.08 1224.48 1335.36 1224.48 997.71C1224.48 660.057 998.393 386.336 719.504 386.336C440.615 386.336 214.531 660.057 214.531 997.71C214.531 1335.36 440.615 1609.08 719.504 1609.08Z" stroke="#080C1D" stroke-miterlimit="10"/>
<path d="M719.502 1570.58C980.824 1570.58 1192.67 1314.1 1192.67 997.711C1192.67 681.326 980.824 424.846 719.502 424.846C458.18 424.846 246.336 681.326 246.336 997.711C246.336 1314.1 458.18 1570.58 719.502 1570.58Z" stroke="#080C1D" stroke-miterlimit="10"/>
<path d="M719.499 1532.07C963.255 1532.07 1160.86 1292.83 1160.86 997.711C1160.86 702.595 963.255 463.355 719.499 463.355C475.744 463.355 278.141 702.595 278.141 997.711C278.141 1292.83 475.744 1532.07 719.499 1532.07Z" stroke="#080C1D" stroke-miterlimit="10"/>
<path d="M719.505 1493.56C945.694 1493.56 1129.06 1271.56 1129.06 997.712C1129.06 723.863 945.694 501.865 719.505 501.865C493.316 501.865 309.953 723.863 309.953 997.712C309.953 1271.56 493.316 1493.56 719.505 1493.56Z" stroke="#080C1D" stroke-miterlimit="10"/>
<path d="M719.501 1455.04C928.118 1455.04 1097.24 1250.29 1097.24 997.711C1097.24 745.137 928.118 540.385 719.501 540.385C510.883 540.385 341.766 745.137 341.766 997.711C341.766 1250.29 510.883 1455.04 719.501 1455.04Z" stroke="#080C1D" stroke-miterlimit="10"/>
<path d="M719.506 1416.53C910.557 1416.53 1065.43 1229.02 1065.43 997.712C1065.43 766.405 910.557 578.895 719.506 578.895C528.455 578.895 373.578 766.405 373.578 997.712C373.578 1229.02 528.455 1416.53 719.506 1416.53Z" stroke="#080C1D" stroke-miterlimit="10"/>
<path d="M719.504 1378.02C892.988 1378.02 1033.62 1207.75 1033.62 997.71C1033.62 787.672 892.988 617.402 719.504 617.402C546.02 617.402 405.383 787.672 405.383 997.71C405.383 1207.75 546.02 1378.02 719.504 1378.02Z" stroke="#080C1D" stroke-miterlimit="10"/>
<path d="M719.501 1339.51C875.419 1339.51 1001.82 1186.48 1001.82 997.711C1001.82 808.941 875.419 655.912 719.501 655.912C563.584 655.912 437.188 808.941 437.188 997.711C437.188 1186.48 563.584 1339.51 719.501 1339.51Z" stroke="#080C1D" stroke-miterlimit="10"/>
<path d="M719.505 1300.99C857.851 1300.99 970.003 1165.21 970.003 997.71C970.003 830.214 857.851 694.432 719.505 694.432C581.159 694.432 469.008 830.214 469.008 997.71C469.008 1165.21 581.159 1300.99 719.505 1300.99Z" stroke="#080C1D" stroke-miterlimit="10"/>
<path d="M719.503 1262.48C840.282 1262.48 938.193 1143.94 938.193 997.711C938.193 851.483 840.282 732.941 719.503 732.941C598.723 732.941 500.812 851.483 500.812 997.711C500.812 1143.94 598.723 1262.48 719.503 1262.48Z" stroke="#080C1D" stroke-miterlimit="10"/>
<path d="M719.5 1223.97C822.713 1223.97 906.383 1122.67 906.383 997.712C906.383 872.751 822.713 771.451 719.5 771.451C616.288 771.451 532.617 872.751 532.617 997.712C532.617 1122.67 616.288 1223.97 719.5 1223.97Z" stroke="#080C1D" stroke-miterlimit="10"/>
<path d="M719.498 1185.46C805.144 1185.46 874.574 1101.4 874.574 997.71C874.574 894.018 805.144 809.959 719.498 809.959C633.852 809.959 564.422 894.018 564.422 997.71C564.422 1101.4 633.852 1185.46 719.498 1185.46Z" stroke="#080C1D" stroke-miterlimit="10"/>
<path d="M719.502 1146.94C787.576 1146.94 842.762 1080.13 842.762 997.712C842.762 915.294 787.576 848.48 719.502 848.48C651.427 848.48 596.242 915.294 596.242 997.712C596.242 1080.13 651.427 1146.94 719.502 1146.94Z" stroke="#080C1D" stroke-miterlimit="10"/>
<path d="M719.499 1108.43C770.007 1108.43 810.952 1058.86 810.952 997.71C810.952 936.56 770.007 886.988 719.499 886.988C668.992 886.988 628.047 936.56 628.047 997.71C628.047 1058.86 668.992 1108.43 719.499 1108.43Z" stroke="#080C1D" stroke-miterlimit="10"/>
</g>
</svg>
