<svg width="1440" height="1755" viewBox="0 0 1440 1755" fill="none" xmlns="http://www.w3.org/2000/svg">
<g opacity="0.04">
<path d="M719.502 1753.58C1174.07 1753.58 1542.57 1361.35 1542.57 877.51C1542.57 393.67 1174.07 1.44141 719.502 1.44141C264.932 1.44141 -103.57 393.67 -103.57 877.51C-103.57 1361.35 264.932 1753.58 719.502 1753.58Z" stroke="#080C1D" stroke-miterlimit="10"/>
<path d="M719.499 1719.72C1156.5 1719.72 1510.76 1342.65 1510.76 877.51C1510.76 412.368 1156.5 35.2969 719.499 35.2969C282.496 35.2969 -71.7656 412.368 -71.7656 877.51C-71.7656 1342.65 282.496 1719.72 719.499 1719.72Z" stroke="#080C1D" stroke-miterlimit="10"/>
<path d="M719.503 1685.86C1138.94 1685.86 1478.95 1323.95 1478.95 877.508C1478.95 431.07 1138.94 69.1602 719.503 69.1602C300.071 69.1602 -39.9453 431.07 -39.9453 877.508C-39.9453 1323.95 300.071 1685.86 719.503 1685.86Z" stroke="#080C1D" stroke-miterlimit="10"/>
<path d="M719.501 1652C1121.37 1652 1447.14 1305.25 1447.14 877.508C1447.14 449.768 1121.37 103.016 719.501 103.016C317.636 103.016 -8.14062 449.768 -8.14062 877.508C-8.14062 1305.25 317.636 1652 719.501 1652Z" stroke="#080C1D" stroke-miterlimit="10"/>
<path d="M719.506 1618.15C1103.81 1618.15 1415.34 1286.55 1415.34 877.509C1415.34 468.466 1103.81 136.871 719.506 136.871C335.208 136.871 23.6719 468.466 23.6719 877.509C23.6719 1286.55 335.208 1618.15 719.506 1618.15Z" stroke="#080C1D" stroke-miterlimit="10"/>
<path d="M719.504 1584.29C1086.24 1584.29 1383.53 1267.85 1383.53 877.509C1383.53 487.164 1086.24 170.727 719.504 170.727C352.772 170.727 55.4766 487.164 55.4766 877.509C55.4766 1267.85 352.772 1584.29 719.504 1584.29Z" stroke="#080C1D" stroke-miterlimit="10"/>
<path d="M719.5 1550.43C1068.66 1550.43 1351.71 1249.15 1351.71 877.51C1351.71 505.867 1068.66 204.592 719.5 204.592C370.339 204.592 87.2891 505.867 87.2891 877.51C87.2891 1249.15 370.339 1550.43 719.5 1550.43Z" stroke="#080C1D" stroke-miterlimit="10"/>
<path d="M719.498 1516.57C1051.09 1516.57 1319.9 1230.45 1319.9 877.51C1319.9 524.565 1051.09 238.447 719.498 238.447C387.904 238.447 119.094 524.565 119.094 877.51C119.094 1230.45 387.904 1516.57 719.498 1516.57Z" stroke="#080C1D" stroke-miterlimit="10"/>
<path d="M719.503 1482.72C1033.53 1482.72 1288.1 1211.76 1288.1 877.51C1288.1 543.263 1033.53 272.303 719.503 272.303C405.476 272.303 150.906 543.263 150.906 877.51C150.906 1211.76 405.476 1482.72 719.503 1482.72Z" stroke="#080C1D" stroke-miterlimit="10"/>
<path d="M719.5 1448.86C1015.96 1448.86 1256.29 1193.06 1256.29 877.508C1256.29 561.959 1015.96 306.156 719.5 306.156C423.04 306.156 182.711 561.959 182.711 877.508C182.711 1193.06 423.04 1448.86 719.5 1448.86Z" stroke="#080C1D" stroke-miterlimit="10"/>
<path d="M719.504 1415C998.393 1415 1224.48 1174.35 1224.48 877.509C1224.48 580.663 998.393 340.021 719.504 340.021C440.615 340.021 214.531 580.663 214.531 877.509C214.531 1174.35 440.615 1415 719.504 1415Z" stroke="#080C1D" stroke-miterlimit="10"/>
<path d="M719.502 1381.14C980.824 1381.14 1192.67 1155.66 1192.67 877.509C1192.67 599.361 980.824 373.877 719.502 373.877C458.18 373.877 246.336 599.361 246.336 877.509C246.336 1155.66 458.18 1381.14 719.502 1381.14Z" stroke="#080C1D" stroke-miterlimit="10"/>
<path d="M719.499 1347.29C963.255 1347.29 1160.86 1136.96 1160.86 877.509C1160.86 618.059 963.255 407.732 719.499 407.732C475.744 407.732 278.141 618.059 278.141 877.509C278.141 1136.96 475.744 1347.29 719.499 1347.29Z" stroke="#080C1D" stroke-miterlimit="10"/>
<path d="M719.505 1313.43C945.694 1313.43 1129.06 1118.26 1129.06 877.51C1129.06 636.757 945.694 441.588 719.505 441.588C493.316 441.588 309.953 636.757 309.953 877.51C309.953 1118.26 493.316 1313.43 719.505 1313.43Z" stroke="#080C1D" stroke-miterlimit="10"/>
<path d="M719.501 1279.57C928.118 1279.57 1097.24 1099.56 1097.24 877.51C1097.24 655.46 928.118 475.453 719.501 475.453C510.883 475.453 341.766 655.46 341.766 877.51C341.766 1099.56 510.883 1279.57 719.501 1279.57Z" stroke="#080C1D" stroke-miterlimit="10"/>
<path d="M719.506 1245.71C910.557 1245.71 1065.43 1080.86 1065.43 877.51C1065.43 674.158 910.557 509.309 719.506 509.309C528.455 509.309 373.578 674.158 373.578 877.51C373.578 1080.86 528.455 1245.71 719.506 1245.71Z" stroke="#080C1D" stroke-miterlimit="10"/>
<path d="M719.504 1211.86C892.988 1211.86 1033.62 1062.17 1033.62 877.511C1033.62 692.856 892.988 543.164 719.504 543.164C546.02 543.164 405.383 692.856 405.383 877.511C405.383 1062.17 546.02 1211.86 719.504 1211.86Z" stroke="#080C1D" stroke-miterlimit="10"/>
<path d="M719.501 1178C875.419 1178 1001.82 1043.47 1001.82 877.509C1001.82 711.552 875.419 577.018 719.501 577.018C563.584 577.018 437.188 711.552 437.188 877.509C437.188 1043.47 563.584 1178 719.501 1178Z" stroke="#080C1D" stroke-miterlimit="10"/>
<path d="M719.505 1144.14C857.851 1144.14 970.003 1024.76 970.003 877.509C970.003 730.256 857.851 610.883 719.505 610.883C581.159 610.883 469.008 730.256 469.008 877.509C469.008 1024.76 581.159 1144.14 719.505 1144.14Z" stroke="#080C1D" stroke-miterlimit="10"/>
<path d="M719.503 1110.28C840.282 1110.28 938.193 1006.07 938.193 877.51C938.193 748.954 840.282 644.738 719.503 644.738C598.723 644.738 500.812 748.954 500.812 877.51C500.812 1006.07 598.723 1110.28 719.503 1110.28Z" stroke="#080C1D" stroke-miterlimit="10"/>
<path d="M719.5 1076.43C822.713 1076.43 906.383 987.368 906.383 877.51C906.383 767.652 822.713 678.594 719.5 678.594C616.288 678.594 532.617 767.652 532.617 877.51C532.617 987.368 616.288 1076.43 719.5 1076.43Z" stroke="#080C1D" stroke-miterlimit="10"/>
<path d="M719.498 1042.57C805.144 1042.57 874.574 968.671 874.574 877.51C874.574 786.35 805.144 712.449 719.498 712.449C633.852 712.449 564.422 786.35 564.422 877.51C564.422 968.671 633.852 1042.57 719.498 1042.57Z" stroke="#080C1D" stroke-miterlimit="10"/>
<path d="M719.502 1008.7C787.576 1008.7 842.762 949.966 842.762 877.509C842.762 805.051 787.576 746.312 719.502 746.312C651.427 746.312 596.242 805.051 596.242 877.509C596.242 949.966 651.427 1008.7 719.502 1008.7Z" stroke="#080C1D" stroke-miterlimit="10"/>
<path d="M719.499 974.85C770.007 974.85 810.952 931.269 810.952 877.509C810.952 823.749 770.007 780.168 719.499 780.168C668.992 780.168 628.047 823.749 628.047 877.509C628.047 931.269 668.992 974.85 719.499 974.85Z" stroke="#080C1D" stroke-miterlimit="10"/>
</g>
</svg>
