<svg width="1440" height="1755" viewBox="0 0 1440 1755" fill="none" xmlns="http://www.w3.org/2000/svg">
<g opacity="0.04">
<path d="M719.502 1753.58C1174.07 1753.58 1542.57 1361.35 1542.57 877.511C1542.57 393.671 1174.07 1.44238 719.502 1.44238C264.932 1.44238 -103.57 393.671 -103.57 877.511C-103.57 1361.35 264.932 1753.58 719.502 1753.58Z" stroke="white" stroke-miterlimit="10"/>
<path d="M719.499 1719.72C1156.5 1719.72 1510.76 1342.65 1510.76 877.511C1510.76 412.369 1156.5 35.2976 719.499 35.2976C282.496 35.2976 -71.7656 412.369 -71.7656 877.511C-71.7656 1342.65 282.496 1719.72 719.499 1719.72Z" stroke="white" stroke-miterlimit="10"/>
<path d="M719.503 1685.86C1138.94 1685.86 1478.95 1323.95 1478.95 877.51C1478.95 431.072 1138.94 69.162 719.503 69.162C300.071 69.162 -39.9453 431.072 -39.9453 877.51C-39.9453 1323.95 300.071 1685.86 719.503 1685.86Z" stroke="white" stroke-miterlimit="10"/>
<path d="M719.501 1652C1121.37 1652 1447.14 1305.25 1447.14 877.51C1447.14 449.77 1121.37 103.017 719.501 103.017C317.636 103.017 -8.14062 449.77 -8.14062 877.51C-8.14062 1305.25 317.636 1652 719.501 1652Z" stroke="white" stroke-miterlimit="10"/>
<path d="M719.506 1618.15C1103.81 1618.15 1415.34 1286.55 1415.34 877.51C1415.34 468.467 1103.81 136.872 719.506 136.872C335.208 136.872 23.6719 468.467 23.6719 877.51C23.6719 1286.55 335.208 1618.15 719.506 1618.15Z" stroke="white" stroke-miterlimit="10"/>
<path d="M719.504 1584.29C1086.24 1584.29 1383.53 1267.86 1383.53 877.51C1383.53 487.165 1086.24 170.728 719.504 170.728C352.772 170.728 55.4766 487.165 55.4766 877.51C55.4766 1267.86 352.772 1584.29 719.504 1584.29Z" stroke="white" stroke-miterlimit="10"/>
<path d="M719.5 1550.43C1068.66 1550.43 1351.71 1249.15 1351.71 877.511C1351.71 505.868 1068.66 204.593 719.5 204.593C370.339 204.593 87.2891 505.868 87.2891 877.511C87.2891 1249.15 370.339 1550.43 719.5 1550.43Z" stroke="white" stroke-miterlimit="10"/>
<path d="M719.498 1516.57C1051.09 1516.57 1319.9 1230.45 1319.9 877.51C1319.9 524.566 1051.09 238.448 719.498 238.448C387.904 238.448 119.094 524.566 119.094 877.51C119.094 1230.45 387.904 1516.57 719.498 1516.57Z" stroke="white" stroke-miterlimit="10"/>
<path d="M719.503 1482.72C1033.53 1482.72 1288.1 1211.76 1288.1 877.511C1288.1 543.264 1033.53 272.303 719.503 272.303C405.476 272.303 150.906 543.264 150.906 877.511C150.906 1211.76 405.476 1482.72 719.503 1482.72Z" stroke="white" stroke-miterlimit="10"/>
<path d="M719.5 1448.86C1015.96 1448.86 1256.29 1193.06 1256.29 877.51C1256.29 561.961 1015.96 306.158 719.5 306.158C423.04 306.158 182.711 561.961 182.711 877.51C182.711 1193.06 423.04 1448.86 719.5 1448.86Z" stroke="white" stroke-miterlimit="10"/>
<path d="M719.504 1415C998.393 1415 1224.48 1174.36 1224.48 877.51C1224.48 580.664 998.393 340.023 719.504 340.023C440.615 340.023 214.531 580.664 214.531 877.51C214.531 1174.36 440.615 1415 719.504 1415Z" stroke="white" stroke-miterlimit="10"/>
<path d="M719.502 1381.14C980.824 1381.14 1192.67 1155.66 1192.67 877.51C1192.67 599.362 980.824 373.878 719.502 373.878C458.18 373.878 246.336 599.362 246.336 877.51C246.336 1155.66 458.18 1381.14 719.502 1381.14Z" stroke="white" stroke-miterlimit="10"/>
<path d="M719.499 1347.29C963.255 1347.29 1160.86 1136.96 1160.86 877.51C1160.86 618.06 963.255 407.733 719.499 407.733C475.743 407.733 278.14 618.06 278.14 877.51C278.14 1136.96 475.743 1347.29 719.499 1347.29Z" stroke="white" stroke-miterlimit="10"/>
<path d="M719.505 1313.43C945.694 1313.43 1129.06 1118.26 1129.06 877.511C1129.06 636.758 945.694 441.589 719.505 441.589C493.316 441.589 309.953 636.758 309.953 877.511C309.953 1118.26 493.316 1313.43 719.505 1313.43Z" stroke="white" stroke-miterlimit="10"/>
<path d="M719.501 1279.57C928.118 1279.57 1097.24 1099.56 1097.24 877.51C1097.24 655.46 928.118 475.453 719.501 475.453C510.883 475.453 341.766 655.46 341.766 877.51C341.766 1099.56 510.883 1279.57 719.501 1279.57Z" stroke="white" stroke-miterlimit="10"/>
<path d="M719.506 1245.71C910.557 1245.71 1065.43 1080.86 1065.43 877.511C1065.43 674.159 910.557 509.309 719.506 509.309C528.455 509.309 373.578 674.159 373.578 877.511C373.578 1080.86 528.455 1245.71 719.506 1245.71Z" stroke="white" stroke-miterlimit="10"/>
<path d="M719.504 1211.86C892.988 1211.86 1033.62 1062.17 1033.62 877.511C1033.62 692.856 892.988 543.164 719.504 543.164C546.02 543.164 405.383 692.856 405.383 877.511C405.383 1062.17 546.02 1211.86 719.504 1211.86Z" stroke="white" stroke-miterlimit="10"/>
<path d="M719.501 1178C875.419 1178 1001.82 1043.47 1001.82 877.51C1001.82 711.553 875.419 577.019 719.501 577.019C563.584 577.019 437.188 711.553 437.188 877.51C437.188 1043.47 563.584 1178 719.501 1178Z" stroke="white" stroke-miterlimit="10"/>
<path d="M719.505 1144.14C857.851 1144.14 970.003 1024.76 970.003 877.51C970.003 730.256 857.851 610.884 719.505 610.884C581.159 610.884 469.008 730.256 469.008 877.51C469.008 1024.76 581.159 1144.14 719.505 1144.14Z" stroke="white" stroke-miterlimit="10"/>
<path d="M719.503 1110.28C840.282 1110.28 938.193 1006.07 938.193 877.511C938.193 748.955 840.282 644.739 719.503 644.739C598.723 644.739 500.812 748.955 500.812 877.511C500.812 1006.07 598.723 1110.28 719.503 1110.28Z" stroke="white" stroke-miterlimit="10"/>
<path d="M719.5 1076.43C822.713 1076.43 906.383 987.369 906.383 877.511C906.383 767.652 822.713 678.594 719.5 678.594C616.287 678.594 532.617 767.652 532.617 877.511C532.617 987.369 616.287 1076.43 719.5 1076.43Z" stroke="white" stroke-miterlimit="10"/>
<path d="M719.498 1042.57C805.144 1042.57 874.574 968.671 874.574 877.51C874.574 786.35 805.144 712.449 719.498 712.449C633.852 712.449 564.422 786.35 564.422 877.51C564.422 968.671 633.852 1042.57 719.498 1042.57Z" stroke="white" stroke-miterlimit="10"/>
<path d="M719.502 1008.71C787.576 1008.71 842.762 949.968 842.762 877.511C842.762 805.053 787.576 746.314 719.502 746.314C651.427 746.314 596.242 805.053 596.242 877.511C596.242 949.968 651.427 1008.71 719.502 1008.71Z" stroke="white" stroke-miterlimit="10"/>
<path d="M719.499 974.852C770.007 974.852 810.952 931.271 810.952 877.511C810.952 823.751 770.007 780.17 719.499 780.17C668.992 780.17 628.047 823.751 628.047 877.511C628.047 931.271 668.992 974.852 719.499 974.852Z" stroke="white" stroke-miterlimit="10"/>
</g>
</svg>
