<svg width="24" height="24" viewBox="0 0 24 24" fill="none" xmlns="http://www.w3.org/2000/svg">
<path d="M6.75 17.25C6.55109 17.25 6.36032 17.329 6.21967 17.4697C6.07902 17.6103 6 17.8011 6 18C6 18.1989 6.07902 18.3897 6.21967 18.5303C6.36032 18.671 6.55109 18.75 6.75 18.75H9C9.19891 18.75 9.38968 18.671 9.53033 18.5303C9.67098 18.3897 9.75 18.1989 9.75 18C9.75 17.8011 9.67098 17.6103 9.53033 17.4697C9.38968 17.329 9.19891 17.25 9 17.25H6.75Z" fill="white"/>
<path d="M13.3575 13.5C13.3575 13.3011 13.2785 13.1103 13.1378 12.9697C12.9972 12.829 12.8064 12.75 12.6075 12.75H6.75C6.55109 12.75 6.36032 12.829 6.21967 12.9697C6.07902 13.1103 6 13.3011 6 13.5C6 13.6989 6.07902 13.8897 6.21967 14.0303C6.36032 14.171 6.55109 14.25 6.75 14.25H12.6075C12.8064 14.25 12.9972 14.171 13.1378 14.0303C13.2785 13.8897 13.3575 13.6989 13.3575 13.5Z" fill="white"/>
<path d="M15 9.75C15 9.55109 14.921 9.36032 14.7803 9.21967C14.6397 9.07902 14.4489 9 14.25 9H6.75C6.55109 9 6.36032 9.07902 6.21967 9.21967C6.07902 9.36032 6 9.55109 6 9.75C6 9.94891 6.07902 10.1397 6.21967 10.2803C6.36032 10.421 6.55109 10.5 6.75 10.5H14.25C14.4489 10.5 14.6397 10.421 14.7803 10.2803C14.921 10.1397 15 9.94891 15 9.75Z" fill="white"/>
<path d="M14.25 5.25H6.75C6.55109 5.25 6.36032 5.32902 6.21967 5.46967C6.07902 5.61032 6 5.80109 6 6C6 6.19891 6.07902 6.38968 6.21967 6.53033C6.36032 6.67098 6.55109 6.75 6.75 6.75H14.25C14.4489 6.75 14.6397 6.67098 14.7803 6.53033C14.921 6.38968 15 6.19891 15 6C15 5.80109 14.921 5.61032 14.7803 5.46967C14.6397 5.32902 14.4489 5.25 14.25 5.25Z" fill="white"/>
<path d="M16.5 1.5H4.5C3.90326 1.5 3.33097 1.73705 2.90901 2.15901C2.48705 2.58097 2.25 3.15326 2.25 3.75V20.25C2.25 20.8467 2.48705 21.419 2.90901 21.841C3.33097 22.2629 3.90326 22.5 4.5 22.5H16.5C16.6615 22.5019 16.8227 22.4843 16.98 22.4475C17.1588 22.4204 17.3219 22.3295 17.439 22.1917C17.5562 22.0539 17.6195 21.8784 17.6175 21.6975C17.6219 21.5794 17.5984 21.4619 17.5487 21.3547C17.4991 21.2474 17.4249 21.1534 17.332 21.0802C17.2391 21.0071 17.1303 20.957 17.0144 20.9339C16.8985 20.9109 16.7788 20.9155 16.665 20.9475C16.6131 20.9736 16.5574 20.9914 16.5 21H4.5C4.30109 21 4.11032 20.921 3.96967 20.7803C3.82902 20.6397 3.75 20.4489 3.75 20.25V3.75C3.75 3.55109 3.82902 3.36032 3.96967 3.21967C4.11032 3.07902 4.30109 3 4.5 3H16.5C16.6989 3 16.8897 3.07902 17.0303 3.21967C17.171 3.36032 17.25 3.55109 17.25 3.75V12.4125C17.25 12.6114 17.329 12.8022 17.4697 12.9428C17.6103 13.0835 17.8011 13.1625 18 13.1625C18.1989 13.1625 18.3897 13.0835 18.5303 12.9428C18.671 12.8022 18.75 12.6114 18.75 12.4125V3.75C18.75 3.15326 18.5129 2.58097 18.091 2.15901C17.669 1.73705 17.0967 1.5 16.5 1.5Z" fill="white"/>
<path d="M16.875 22.4547C16.7003 22.4557 16.527 22.4226 16.365 22.3572C15.088 21.8907 13.9848 21.0438 13.2043 19.9306C12.4237 18.8175 12.0034 17.4917 12 16.1322V13.4997C12.0001 13.3455 12.0476 13.1952 12.1362 13.069C12.2248 12.9429 12.35 12.8471 12.495 12.7947L16.62 11.2947C16.7848 11.2351 16.9652 11.2351 17.13 11.2947L21.255 12.7947C21.4 12.8471 21.5252 12.9429 21.6138 13.069C21.7024 13.1952 21.7499 13.3455 21.75 13.4997V16.1322C21.746 17.4925 21.3255 18.8189 20.5452 19.9332C19.7648 21.0474 18.662 21.8959 17.385 22.3647C17.2215 22.424 17.0489 22.4545 16.875 22.4547ZM13.5 14.0247V16.1322C13.5017 17.1847 13.8262 18.2114 14.4297 19.0737C15.0332 19.9361 15.8867 20.5926 16.875 20.9547C17.8633 20.5926 18.7168 19.9361 19.3203 19.0737C19.9238 18.2114 20.2483 17.1847 20.25 16.1322V14.0247L16.875 12.7947L13.5 14.0247Z" fill="#F97968"/>
<path d="M16.4992 18.7492C16.4005 18.7497 16.3026 18.7308 16.2112 18.6935C16.1199 18.6562 16.0367 18.6012 15.9667 18.5317L14.4667 17.0317C14.3254 16.8904 14.2461 16.6989 14.2461 16.4992C14.2461 16.2994 14.3254 16.1079 14.4667 15.9667C14.6079 15.8254 14.7994 15.7461 14.9992 15.7461C15.1989 15.7461 15.3904 15.8254 15.5317 15.9667L16.4992 16.9417L18.2167 15.2167C18.3579 15.0754 18.5494 14.9961 18.7492 14.9961C18.9489 14.9961 19.1404 15.0754 19.2817 15.2167C19.4229 15.3579 19.5022 15.5494 19.5022 15.7492C19.5022 15.9489 19.4229 16.1404 19.2817 16.2817L17.0317 18.5317C16.9616 18.6012 16.8785 18.6562 16.7871 18.6935C16.6957 18.7308 16.5979 18.7497 16.4992 18.7492Z" fill="#F97968"/>
</svg>
