<svg width="24" height="24" viewBox="0 0 24 24" fill="none" xmlns="http://www.w3.org/2000/svg">
<path d="M16.2518 3.30719C16.2518 4.61594 12.9985 5.67686 8.98527 5.67686C4.97206 5.67686 1.71875 4.61594 1.71875 3.30719" stroke="white" stroke-miterlimit="10" stroke-linecap="round" stroke-linejoin="round"/>
<path d="M11.5535 12.7683C10.755 12.8667 9.88939 12.9206 8.98527 12.9206C4.97206 12.9206 1.71875 11.8597 1.71875 10.5509" stroke="white" stroke-miterlimit="10" stroke-linecap="round" stroke-linejoin="round"/>
<path d="M21.8742 16.8225C21.8742 16.491 21.8453 16.1663 21.7899 15.8511L21.9391 15.6974C22.3196 15.3055 22.3907 14.7006 22.112 14.2281L21.3785 12.9847C21.0997 12.5123 20.5422 12.2928 20.0244 12.4517L19.8204 12.5143C19.3969 12.1746 18.9221 11.8983 18.4097 11.6997L18.3576 11.4908C18.2243 10.9565 17.7524 10.5825 17.2117 10.5825H15.7883C15.2476 10.5825 14.7757 10.9565 14.6424 11.4908L14.5903 11.6997C14.0779 11.8983 13.6031 12.1745 13.1795 12.5143L12.9756 12.4517C12.4578 12.2927 11.9002 12.5122 11.6215 12.9847L10.8879 14.2281C10.6092 14.7005 10.6804 15.3055 11.0608 15.6974L11.21 15.8511C11.1546 16.1663 11.1258 16.491 11.1258 16.8225C11.1258 17.154 11.1546 17.4787 11.21 17.7939L11.0608 17.9476C10.6804 18.3395 10.6092 18.9444 10.8879 19.4169L11.6215 20.6603C11.9002 21.1328 12.4578 21.3522 12.9756 21.1933L13.1795 21.1307C13.6031 21.4705 14.078 21.7467 14.5903 21.9453L14.6424 22.1543C14.7757 22.6885 15.2476 23.0626 15.7883 23.0626H17.2117C17.7525 23.0626 18.2243 22.6885 18.3576 22.1542L18.4097 21.9453C18.9221 21.7467 19.3969 21.4704 19.8204 21.1307L20.0244 21.1933C20.5422 21.3522 21.0997 21.1328 21.3785 20.6603L22.112 19.4169C22.3908 18.9444 22.3196 18.3395 21.9391 17.9476L21.7899 17.7939C21.8453 17.4787 21.8742 17.154 21.8742 16.8225Z" fill="#F97968" stroke="#F97968" stroke-miterlimit="10" stroke-linecap="round" stroke-linejoin="round"/>
<path d="M16.4987 18.7816C17.5767 18.7816 18.4505 17.9045 18.4505 16.8225C18.4505 15.7406 17.5767 14.8635 16.4987 14.8635C15.4207 14.8635 14.5469 15.7406 14.5469 16.8225C14.5469 17.9045 15.4207 18.7816 16.4987 18.7816Z" fill="white" stroke="white" stroke-miterlimit="10" stroke-linecap="round" stroke-linejoin="round"/>
<path d="M16.2518 5.89495V3.30717C16.2518 1.99842 12.9985 0.9375 8.98527 0.9375C4.97206 0.9375 1.71875 1.99842 1.71875 3.30717V18.1356C1.71875 19.4444 4.97206 20.5053 8.98527 20.5053C9.74787 20.5053 10.483 20.467 11.1737 20.3959" stroke="white" stroke-miterlimit="10" stroke-linecap="round" stroke-linejoin="round"/>
</svg>
