<svg width="25" height="24" viewBox="0 0 25 24" fill="none" xmlns="http://www.w3.org/2000/svg">
<g clip-path="url(#clip0_391_4185)">
<path d="M23.2947 9.91355L13.5053 9.91309C13.073 9.91309 12.7227 10.2634 12.7227 10.6957V13.823C12.7227 14.2552 13.073 14.6056 13.5053 14.6056H19.0181C18.4144 16.1722 17.2877 17.4842 15.8502 18.3178L18.2009 22.387C21.9716 20.2062 24.2009 16.3799 24.2009 12.0965C24.2009 11.4866 24.1559 11.0506 24.066 10.5597C23.9977 10.1867 23.6739 9.91355 23.2947 9.91355Z" fill="#167EE6"/>
<path d="M12.1956 19.3044C9.49773 19.3044 7.14255 17.8304 5.87762 15.6492L1.80859 17.9945C3.8793 21.5834 7.75839 24.0001 12.1956 24.0001C14.3723 24.0001 16.4262 23.414 18.1956 22.3927V22.3871L15.8449 18.3179C14.7697 18.9415 13.5255 19.3044 12.1956 19.3044Z" fill="#12B347"/>
<path d="M18.1992 22.3927V22.3871L15.8486 18.3179C14.7734 18.9414 13.5292 19.3044 12.1992 19.3044V24.0001C14.376 24.0001 16.43 23.414 18.1992 22.3927Z" fill="#0F993E"/>
<path d="M4.89488 12C4.89488 10.6702 5.25778 9.42613 5.88127 8.35096L1.81223 6.00562C0.78525 7.76938 0.199219 9.81772 0.199219 12C0.199219 14.1824 0.78525 16.2307 1.81223 17.9945L5.88127 15.6491C5.25778 14.5739 4.89488 13.3298 4.89488 12Z" fill="#FFD500"/>
<path d="M12.1956 4.69566C13.9548 4.69566 15.5708 5.32078 16.833 6.36061C17.1444 6.61711 17.597 6.59859 17.8822 6.31336L20.098 4.09758C20.4216 3.77395 20.3986 3.24422 20.0529 2.94431C17.9381 1.10967 15.1865 0 12.1956 0C7.75839 0 3.8793 2.41673 1.80859 6.00558L5.87762 8.35092C7.14255 6.16969 9.49773 4.69566 12.1956 4.69566Z" fill="#FF4B26"/>
<path d="M16.8367 6.36061C17.148 6.61711 17.6007 6.59859 17.8859 6.31336L20.1016 4.09758C20.4252 3.77395 20.4022 3.24422 20.0565 2.94431C17.9417 1.10963 15.1902 0 12.1992 0V4.69566C13.9584 4.69566 15.5745 5.32078 16.8367 6.36061Z" fill="#D93F21"/>
</g>
<defs>
<clipPath id="clip0_391_4185">
<rect width="24" height="24" fill="white" transform="translate(0.199219)"/>
</clipPath>
</defs>
</svg>
