<svg width="24" height="24" viewBox="0 0 24 24" fill="none" xmlns="http://www.w3.org/2000/svg">
<path d="M6.53775 17.9333C2.71584 16.7832 0 13.1865 0 9.1875C0 4.1475 4.1475 0 9.1875 0C13.1865 0 16.7832 2.71584 17.9333 6.53775C18.0963 7.07897 17.5832 7.57838 17.0523 7.41183C16.3348 7.19072 15.5809 7.07812 14.8125 7.07812C10.5478 7.07812 7.07812 10.5478 7.07812 14.8125C7.07812 15.5809 7.19072 16.3348 7.41183 17.0523C7.57772 17.5871 7.07812 18.0949 6.53775 17.9333Z" fill="#F97968"/>
<path d="M17.3232 6.5459C20.9355 7.63438 23.5019 11.0377 23.502 14.8115C23.502 19.5754 19.5783 23.499 14.8145 23.499C11.1576 23.4989 7.84828 21.0893 6.65625 17.6533L6.54785 17.3174C6.53185 17.2643 6.53837 17.207 6.56543 17.1592L6.59961 17.1143L6.60156 17.1123C6.63915 17.0746 6.69158 17.0542 6.74609 17.0557L6.80078 17.0645L6.80273 17.0654C7.56878 17.3015 8.37232 17.4209 9.18945 17.4209C13.7303 17.4209 17.4238 13.7274 17.4238 9.18652C17.4238 8.47154 17.3324 7.767 17.1514 7.08887L17.0684 6.7998L17.0674 6.79883L17.0586 6.74512C17.057 6.69087 17.0771 6.63642 17.1162 6.59668L17.1172 6.59766C17.1564 6.55827 17.2116 6.53634 17.2676 6.53711L17.3232 6.5459Z" stroke="white"/>
<path d="M18.3281 9.1875C18.3281 8.14945 18.1649 7.14769 17.8178 6.1822C16.8523 5.83514 15.8505 5.67188 14.8125 5.67188C14.1375 5.67188 13.4766 5.74219 12.8437 5.88286L13.1142 6.97959L11.3391 6.36094C10.875 6.54375 10.4391 6.78281 10.0172 7.03589L10.6169 8.61047L8.87817 7.87969C8.51255 8.17505 8.17505 8.5125 7.8938 8.87817L8.65364 10.6861L7.03589 10.0172C6.78277 10.425 6.55781 10.875 6.36094 11.325L7.00383 13.164L5.88286 12.8437C5.74219 13.4766 5.67188 14.1375 5.67188 14.8125C5.67188 15.8505 5.83514 16.8523 6.1822 17.8178C7.14769 18.1649 8.14945 18.3281 9.1875 18.3281C9.86245 18.3281 10.5234 18.2578 11.1563 18.1171L10.7448 16.8393L12.675 17.6391C13.125 17.4422 13.575 17.2172 13.9828 16.9641L13.2368 15.2429L15.1218 16.1063C15.4875 15.825 15.825 15.4875 16.1203 15.1219L15.2296 13.1834L16.9641 13.9828C17.2172 13.5609 17.4562 13.125 17.6391 12.6609L16.8283 10.7002L18.1171 11.1563C18.2578 10.5234 18.3281 9.86245 18.3281 9.1875Z" fill="white"/>
<path d="M12.675 17.6383C12.1828 17.8352 11.6766 18.0039 11.1562 18.1164L5.88281 12.8429C5.99527 12.3226 6.16402 11.8164 6.36089 11.3242L12.675 17.6383Z" fill="#F97968"/>
<path d="M15.1211 16.107C14.7695 16.4305 14.3899 16.7117 13.982 16.9648L7.03516 10.018C7.28837 9.61011 7.56953 9.23047 7.89302 8.87891L15.1211 16.107Z" fill="#F97968"/>
<path d="M16.9648 13.982C16.7116 14.3899 16.4305 14.7695 16.121 15.1211L8.87891 7.87895C9.23047 7.56953 9.61011 7.28837 10.018 7.03516L16.9648 13.982Z" fill="#F97968"/>
<path d="M18.1179 11.1563C18.0054 11.6766 17.8367 12.1828 17.6398 12.6608L11.3398 6.36089C11.8179 6.16402 12.3242 5.99527 12.8444 5.88281L18.1179 11.1563Z" fill="#F97968"/>
<path d="M11.1562 18.1175C11.6766 18.0051 12.1828 17.8363 12.675 17.6395L9.51792 14.4824L8.51953 15.4808L11.1562 18.1175Z" fill="#F97968"/>
<path d="M13.9812 16.9641C14.3891 16.7109 14.7687 16.4297 15.1203 16.1063L11.5063 12.4922L10.5078 13.4906L13.9812 16.9641Z" fill="#F97968"/>
<path d="M16.1208 15.1223C16.4302 14.7708 16.7114 14.3911 16.9646 13.9833L13.4912 10.5098L16.1208 15.1223Z" fill="#F97968"/>
<path d="M14.4883 9.51084L17.6383 12.6608C17.8352 12.1828 18.0039 11.6765 18.1164 11.1562L15.4796 8.51953L14.4883 9.51084Z" fill="#F97968"/>
</svg>
