<svg width="24" height="24" viewBox="0 0 24 24" fill="none" xmlns="http://www.w3.org/2000/svg">
<path d="M19.6797 2.41024L20.4622 1.75037" stroke="white" stroke-miterlimit="10" stroke-linecap="round" stroke-linejoin="round"/>
<path d="M20.6562 4.6715L21.6726 4.55005" stroke="white" stroke-miterlimit="10" stroke-linecap="round" stroke-linejoin="round"/>
<path d="M4.32942 2.41024L3.54688 1.75037" stroke="white" stroke-miterlimit="10" stroke-linecap="round" stroke-linejoin="round"/>
<path d="M3.34452 4.67143L2.32812 4.54999" stroke="white" stroke-miterlimit="10" stroke-linecap="round" stroke-linejoin="round"/>
<path d="M11.9093 13.4413C14.2928 13.4413 16.2249 11.5092 16.2249 9.12576C16.2249 6.74233 14.2928 4.81018 11.9093 4.81018C9.5259 4.81018 7.59375 6.74233 7.59375 9.12576C7.59375 11.5092 9.5259 13.4413 11.9093 13.4413Z" fill="#F97968" stroke="#F97968" stroke-miterlimit="10" stroke-linecap="round" stroke-linejoin="round"/>
<path d="M7.99759 17.5992H15.8352C15.906 16.4085 16.4094 15.2811 17.2549 14.4302C18.6069 13.0697 19.4423 11.1953 19.4423 9.12578C19.4423 4.99969 16.1218 1.64911 12.0072 1.60051C7.86901 1.55165 4.44397 4.88962 4.39125 9.02772C4.36446 11.131 5.20067 13.0391 6.56808 14.4203C7.41544 15.2761 7.92593 16.4043 7.99759 17.5992Z" stroke="white" stroke-miterlimit="10" stroke-linecap="round" stroke-linejoin="round"/>
<path d="M16.2027 19.9995H7.61199C7.37754 19.9995 7.1875 19.8095 7.1875 19.575V18.0236C7.1875 17.7892 7.37754 17.5991 7.61199 17.5991H16.2027C16.4371 17.5991 16.6272 17.7892 16.6272 18.0236V19.575C16.6272 19.8095 16.4371 19.9995 16.2027 19.9995Z" fill="#F97968" stroke="white" stroke-miterlimit="10" stroke-linecap="round" stroke-linejoin="round"/>
<path d="M13.8915 22.4H9.93385C8.76659 22.4 7.82031 21.4538 7.82031 20.2865V19.9996H16.0049V20.2865C16.005 21.4538 15.0587 22.4 13.8915 22.4Z" stroke="white" stroke-miterlimit="10" stroke-linecap="round" stroke-linejoin="round"/>
<path d="M13.6057 8.0058L11.3658 10.2458L10.5077 9.38772" stroke="white" stroke-miterlimit="10" stroke-linecap="round" stroke-linejoin="round"/>
</svg>
