<svg width="180" height="180" viewBox="0 0 180 180" fill="none" xmlns="http://www.w3.org/2000/svg">
<path d="M90.0234 8.97544V17.9424H98.9844V26.9333H107.975V35.8881H116.954V0.0146484H99.062V8.97544H90.0234Z" fill="#080C1D"/>
<path d="M35.9908 116.985C41.9289 116.985 56.9122 116.985 62.9458 116.985C62.9458 135.015 62.9458 152.964 62.9458 171.029C69.0024 171.029 74.9482 171.029 80.9753 171.029C80.9753 174.065 80.9753 176.985 80.9753 179.979C93.0041 179.979 104.951 179.979 117.068 179.979C117.068 176.993 117.068 174.014 117.067 171.036C120.017 171.036 122.967 171.036 125.998 171.036C125.998 174.062 125.998 176.983 125.998 179.979C132.024 179.979 137.969 179.979 143.975 179.979C143.975 174.047 143.975 168.126 143.975 162.086C141.046 162.086 138.1 162.086 135.093 162.086C135.093 156.047 135.093 150.125 135.093 144.118C138.008 144.118 140.952 144.118 144.017 144.118C144.017 147.043 144.017 149.989 144.017 152.985C147.056 152.985 149.976 152.985 153.058 152.985C153.058 143.999 153.058 135.02 153.058 126.042C162.011 126.042 170.964 126.042 179.987 126.042C179.987 114.014 179.987 102.069 179.987 89.955C176.995 89.955 174.017 89.955 171.039 89.9561C171.039 87.0064 171.039 84.0566 171.039 81.0247C174.066 81.0247 176.987 81.0247 179.982 81.0247C179.982 74.9965 179.982 69.0518 179.982 63.0273C159.04 63.0273 138.112 63.0273 117.066 63.0273C117.066 57.0044 117.066 51.0585 117.066 44.9957C111.005 44.9957 105.059 44.9957 99.031 44.9957C99.031 41.9583 99.031 39.0373 99.031 35.9897C95.9739 35.9897 92.9973 35.9897 90.0209 35.9897C90.0209 38.9413 90.0209 41.893 90.0209 44.9111C83.9892 44.9111 78.0455 44.9111 72.0205 44.9111C72.0205 38.963 71.9371 6.03619 71.9371 0.0371094C69.016 0.0371094 66.0753 0.0371094 63.0616 0.0371094C63.0616 5.95037 63.001 50.9384 63.001 62.9625C56.9713 62.9625 51.0505 62.9625 45.0171 62.9625C45.0171 68.9847 45.0171 74.9293 45.0171 80.9364C41.9608 80.9364 39.0175 80.9364 35.9904 80.9364C35.9904 77.9754 35.9904 75.0555 35.9904 72.008C32.9331 72.008 29.9567 72.008 26.9804 72.008C26.9804 74.9829 26.9804 77.9577 26.9804 81.0119C23.879 81.0119 20.9276 81.0119 17.9766 81.0119C17.9766 83.9615 17.9766 86.9113 17.9766 89.9676C23.9625 89.9676 29.9017 89.9676 35.9908 89.9676C35.9908 93.046 35.9908 96.0194 35.9908 98.9925C41.9442 98.9925 47.8975 98.9925 53.9175 98.9925C53.9175 102.021 53.9175 104.965 53.9175 107.992C50.9663 107.992 38.955 107.992 35.9622 107.992C35.9622 111.017 35.9908 113.96 35.9908 116.985ZM116.961 89.9352C113.959 89.9352 111.018 89.9352 108.092 89.9352C108.092 86.9241 108.092 83.9838 108.092 81.0489C111.088 81.0489 114.005 81.0489 116.961 81.0489C116.961 84.0419 116.961 86.9819 116.961 89.9352ZM162.031 72.0649C162.031 78.0877 162.031 84.0361 162.031 89.9846H153.053C153.053 84.0137 153.053 78.0427 153.053 72.0649C156.108 72.0649 159.05 72.0649 162.031 72.0649ZM162.102 108.057C165.075 108.057 167.992 108.057 170.98 108.057C170.98 111.083 170.98 114.023 170.98 116.937C167.965 116.937 165.025 116.937 162.102 116.937C162.102 113.936 162.102 111.02 162.102 108.057ZM144.104 117.094C147.113 117.094 150.051 117.094 153.029 117.094C153.029 120.118 153.029 123.066 153.029 126.013C150.058 126.013 147.087 126.013 144.104 126.013C144.104 122.963 144.104 120.025 144.104 117.094ZM135.071 80.9788C131.977 80.9788 129.033 80.9788 126.105 80.9788C126.105 77.9188 126.105 74.9759 126.105 72.0478C132.105 72.0478 138.024 72.0478 144.057 72.0478C144.057 78.0355 144.057 83.9673 144.057 89.9848H144.001V99.0277H153.025C153.025 101.997 153.025 104.969 153.025 107.936C149.967 107.936 147.024 107.936 144.001 107.936C144.001 104.937 144.001 102.018 144.001 99.0277C140.97 99.0277 138.021 99.0277 135.071 99.0277C135.071 93.0491 135.071 87.0716 135.071 80.9788ZM107.992 170.982H108.061V152.986C108.061 149.949 108.061 147.029 108.061 144.044C111.094 144.044 114.044 144.044 116.995 144.044C116.995 147.018 116.995 149.992 116.995 153.077C120.092 153.077 123.035 153.077 125.977 153.077C125.977 156.108 125.977 159.025 125.977 162.055C122.987 162.055 120.044 162.055 117.038 162.055C117.038 165.115 117.038 168.063 117.038 171.011C114.06 171.012 111.083 171.012 107.992 171.012C107.992 171.002 107.992 170.992 107.992 170.982ZM117.025 144.015C117.025 141.044 117.025 138.073 117.025 135.098C120.088 135.098 123.027 135.098 125.949 135.098C125.949 138.11 125.949 141.049 125.949 144.015C122.922 144.015 119.973 144.015 117.025 144.015ZM90.0576 108.081C93.0581 108.081 96.0022 108.081 99.0282 108.081C99.0282 111.071 99.0282 113.993 99.0282 116.952C105.056 116.952 111.001 116.952 116.936 116.952C116.936 113.942 116.936 110.998 116.936 107.971C113.933 107.971 111.012 107.971 108.092 107.971C108.092 104.942 108.092 101.999 108.092 99.0067C108.57 99.0067 108.968 99.0067 109.366 99.0067C117.169 99.0067 124.973 99.0053 132.776 99.0088C133.533 99.0093 134.29 99.0396 135.046 99.0555C135.046 102.029 135.046 105.004 135.046 108.056C131.947 108.056 129.026 108.056 126.104 108.056C126.104 111.082 126.104 114.026 126.104 117.05C129.102 117.05 132.023 117.05 134.961 117.05C134.961 120.076 134.961 123.02 134.961 126.044C122.964 126.044 111.039 126.044 98.9986 126.044C98.9986 132.07 98.9986 138.016 98.9986 143.958C95.9369 143.958 92.9927 143.958 90.0576 143.958C90.0576 131.954 90.0576 120.03 90.0576 108.081ZM90.0492 90.0748C93.0724 90.0748 96.0127 90.0748 98.9287 90.0748C98.9287 93.0896 98.9287 96.0297 98.9287 98.954C95.929 98.954 93.0125 98.954 90.0492 98.954C90.0492 95.9811 90.0492 93.0645 90.0492 90.0748ZM90.0212 54.0476C93.0621 54.0476 96.001 54.0476 98.9375 54.0476C98.9375 57.0541 98.9375 59.993 98.9375 62.9823C95.9166 62.9823 92.9687 62.9823 90.0212 62.9823C90.0212 60.0099 90.0212 57.0375 90.0212 54.0476ZM80.9877 63.0192C83.9897 63.0164 86.9919 63.0136 89.9935 63.0101C89.9916 65.9984 89.9897 68.9868 89.9879 71.9753C87.622 71.9846 85.256 71.994 82.8899 72.0035H81.0375C81.0208 69.0088 81.0044 66.014 80.9877 63.0192ZM72.0481 98.9277C72.0481 95.9273 72.0481 93.0109 72.0481 90.0482C75.0207 90.0482 77.9371 90.0482 80.9263 90.0482C80.9263 93.0722 80.9263 96.012 80.9263 98.9277C77.9108 98.9277 74.9706 98.9277 72.0481 98.9277ZM80.9264 108.058C80.9264 111.083 80.9264 114.023 80.9264 116.938C77.911 116.938 74.9706 116.938 72.0481 116.938C72.0481 113.938 72.0481 111.021 72.0481 108.058C75.0211 108.058 77.9376 108.058 80.9264 108.058ZM80.9597 62.9936C77.9849 62.9936 75.0098 62.9936 72.0518 62.9936C72.0518 59.9051 72.0518 56.9848 72.0518 54.0553C75.0571 54.0553 78.0011 54.0553 80.9583 54.0553C80.9583 57.0851 80.9583 60.04 80.9597 62.9936ZM80.955 143.962C77.9301 143.962 74.9883 143.962 72.0732 143.962C72.0732 137.945 72.0732 132.004 72.0732 126.08C75.0736 126.08 77.9919 126.08 80.955 126.08C80.955 132.054 80.955 137.971 80.955 143.962ZM72.0467 153.086C75.0179 153.086 77.9341 153.086 80.9277 153.086C80.9277 156.108 80.9277 159.047 80.9277 161.965C77.9134 161.965 74.9734 161.965 72.0467 161.965C72.0467 158.967 72.0467 156.05 72.0467 153.086ZM54.0267 72.0648C57.0504 72.0648 59.9924 72.0648 62.9085 72.0648C62.9085 78.0803 62.9085 84.0211 62.9085 89.9482C59.9085 89.9482 56.9902 89.9482 54.0267 89.9482C54.0267 83.9743 54.0267 78.0572 54.0267 72.0648Z" fill="#080C1D"/>
<path d="M17.9747 81.0125C17.9649 81.0125 17.9551 81.0125 17.9453 81.0125C17.9453 81.0034 17.9453 80.9945 17.9453 80.9854C17.9551 80.9854 17.9649 80.9854 17.9747 80.9854C17.9747 80.9945 17.9747 81.0034 17.9747 81.0125Z" fill="#080C1D"/>
<path d="M0.0078125 53.8998C17.9415 53.8998 35.8895 53.8998 53.91 53.8998C53.91 35.9743 53.91 18.0268 53.91 0C35.9116 0 17.9874 0 0.0078125 0C0.0078125 17.9713 0.0078125 35.8952 0.0078125 53.8998ZM8.97824 9.01631C21.0071 9.01631 32.9523 9.01631 44.9088 9.01631C44.9088 21.0237 44.9088 32.9685 44.9088 44.8989C32.8917 44.8989 20.9465 44.8989 8.97824 44.8989C8.97824 32.9214 8.97824 21.0237 8.97824 9.01631Z" fill="#080C1D"/>
<path d="M-0.00390625 126.101C-0.00390625 144.089 -0.00390625 162.013 -0.00390625 179.995C17.965 179.995 35.889 179.995 53.8973 179.995C53.8973 162.071 53.8973 144.123 53.8973 126.101C35.9804 126.101 18.0326 126.101 -0.00390625 126.101ZM9.03517 135.083C21.0386 135.083 32.9604 135.083 44.9305 135.083C44.9305 147.059 44.9305 158.981 44.9305 170.979C32.9052 170.979 20.9599 170.979 9.03517 170.979C9.03517 158.96 9.03517 147.015 9.03517 135.083Z" fill="#080C1D"/>
<path d="M126.07 53.9226C144.039 53.9226 161.963 53.9226 179.972 53.9226C179.972 35.9978 179.972 18.0503 179.972 0.0273438C162.053 0.0273438 144.105 0.0273438 126.07 0.0273438C126.07 18.0176 126.07 35.9414 126.07 53.9226ZM135.103 9.03752C147.124 9.03752 159.069 9.03752 170.996 9.03752C170.996 21.0432 170.996 32.9648 170.996 44.932C159.017 44.932 147.096 44.932 135.103 44.932C135.103 32.9 135.103 20.9553 135.103 9.03752Z" fill="#080C1D"/>
<path d="M90.0221 8.94629V8.97606H89.9922L90.0221 8.94629Z" fill="#080C1D"/>
<path d="M26.9531 71.9795C26.9621 71.9795 26.9712 71.9795 26.9803 71.9795C26.9803 71.9891 26.9803 71.9989 26.9803 72.0086C26.9712 72.0086 26.9621 72.0086 26.9531 72.0086C26.9531 71.9991 26.9531 71.9893 26.9531 71.9795Z" fill="#080C1D"/>
<path d="M17.9486 80.985C14.9718 80.985 11.9949 80.985 8.93685 80.985C8.93685 77.9331 8.93685 75.0118 8.93685 71.9736C5.90999 71.9736 2.96422 71.9736 0.00390625 71.9736C0.00390625 68.9339 0.00390625 66.0139 0.00390625 63.0557C9.00078 63.0557 17.9475 63.0557 26.9549 63.0557C26.9549 66.0738 26.9549 69.0266 26.9549 71.9792C24.003 71.9792 21.0508 71.9792 17.9488 71.9792C17.9486 75.0333 17.9486 78.0092 17.9486 80.985Z" fill="#080C1D"/>
<path d="M162.102 135.081C168.071 135.081 173.988 135.081 179.985 135.081C179.985 141.096 179.985 147.036 179.985 152.959C173.974 152.959 168.033 152.959 162.102 152.959C162.102 146.963 162.102 141.046 162.102 135.081Z" fill="#080C1D"/>
<path d="M162.095 171.065C165.13 171.065 168.082 171.065 171.035 171.065C171.035 171.056 171.035 171.047 171.035 171.037C171.044 171.037 171.053 171.037 171.063 171.037C171.063 171.047 171.063 171.056 171.063 171.065C171.063 167.331 171.063 163.593 171.063 162.099C174.118 162.099 177.038 162.099 179.989 162.099C179.989 165.095 180.025 179.98 179.989 179.98C177.131 179.98 159.065 180.001 153.113 180.001C153.113 174.003 153.113 168.058 153.113 162.132C156.126 162.132 159.07 162.132 162.095 162.132C162.095 165.137 162.095 168.058 162.095 171.065Z" fill="#080C1D"/>
<path d="M35.964 108.035C32.9078 108.035 29.9863 108.035 26.9483 108.035C26.9483 111.062 26.9483 114.008 26.9483 116.968C23.9095 116.968 20.9891 116.968 18.0312 116.968C18.0312 110.972 18.0312 105.026 18.0312 99.0215C24.0536 99.0215 30.0089 99.0215 35.964 99.0215C35.964 101.985 35.964 104.949 35.964 107.993C35.964 108.007 35.964 108.021 35.964 108.035Z" fill="#080C1D"/>
<path d="M35.9609 99.0204C35.9609 99.0111 35.9609 99.0016 35.9609 98.9922C35.9609 98.9922 35.9681 98.9992 35.9751 99.0062L35.9609 98.9922C35.9704 98.9922 35.9798 98.9922 35.9893 98.9922C35.9893 99.0016 35.9893 99.0111 35.9893 99.0204C35.98 99.0204 35.9704 99.0204 35.9609 99.0204Z" fill="#080C1D"/>
<path d="M0.0195312 90.0459C3.00156 90.0459 5.91634 90.0459 8.90467 90.0459C8.90467 93.0733 8.90467 95.9879 8.90467 98.9494C5.91616 98.9494 2.97774 98.9494 0.0195312 98.9494C0.0195312 95.9515 0.0195312 93.0129 0.0195312 90.0459Z" fill="#080C1D"/>
<path d="M0.0078125 108.062C2.97881 108.062 5.89359 108.062 8.87912 108.062C8.87912 111.085 8.87912 114.023 8.87912 116.935C5.86574 116.935 2.92697 116.935 0.0078125 116.935C0.0078125 113.936 0.0078125 111.022 0.0078125 108.062Z" fill="#080C1D"/>
<path d="M81.0508 0.0205078C84.0461 0.0205078 86.9891 0.0205078 89.9914 0.0205078C89.9914 3.04001 89.9914 5.9928 89.9914 8.9454C87.0147 8.9454 84.0379 8.9454 81.0508 8.9454C81.0508 5.89332 81.0508 2.97399 81.0508 0.0205078Z" fill="#080C1D"/>
<path d="M89.9922 8.94629C90.0016 8.94629 90.0111 8.94629 90.0206 8.94629L89.9922 8.97466C89.9922 8.9652 89.9922 8.95575 89.9922 8.94629Z" fill="#080C1D"/>
<path d="M81.0508 18.0382C84.0463 18.0382 86.9895 17.9424 89.9913 17.9424C89.9913 20.9629 89.9913 32.9553 89.9913 35.9615C87.0145 35.9615 84.0377 35.9615 81.0508 35.9615C81.0508 32.9086 81.0508 20.9911 81.0508 18.0382Z" fill="#080C1D"/>
<path d="M89.9922 35.9609C90.0015 35.9609 90.0109 35.9609 90.0202 35.9609C90.0202 35.9609 90.0132 35.9681 90.0062 35.9753L90.0204 35.9611C90.0204 35.9706 90.0204 35.9798 90.0204 35.9893C90.0109 35.9893 90.0015 35.9893 89.9922 35.9893C89.9922 35.9806 89.9922 35.9697 89.9922 35.9609Z" fill="#080C1D"/>
<path d="M18.0078 18.0381C24.0368 18.0381 29.9772 18.0381 35.8863 18.0381C35.8863 24.0538 35.8863 29.9942 35.8863 35.912C29.8851 35.912 23.9684 35.912 18.0078 35.912C18.0078 29.9378 18.0078 24.0212 18.0078 18.0381Z" fill="#080C1D"/>
<path d="M18.0391 144.121C24.0546 144.121 29.9952 144.121 35.9141 144.121C35.9141 150.122 35.9141 156.039 35.9141 161.999C29.94 161.999 24.0234 161.999 18.0391 161.999C18.0391 155.972 18.0391 150.031 18.0391 144.121Z" fill="#080C1D"/>
<path d="M144.086 18.0215C150.076 18.0215 156.017 18.0215 161.976 18.0215C161.976 24.0204 161.976 29.9606 161.976 35.8932C155.968 35.8932 150.027 35.8932 144.086 35.8932C144.086 29.8997 144.086 23.9833 144.086 18.0215Z" fill="#080C1D"/>
</svg>
