<svg width="184" height="310" viewBox="0 0 184 310" fill="none" xmlns="http://www.w3.org/2000/svg">
<path d="M94 155C124.359 159.472 182.951 200.514 165.971 304" stroke="#E4E4E7"/>
<path d="M76 9C112.64 18.0326 200.433 94.9594 179.94 304" stroke="#E4E4E7"/>
<path d="M94.1876 153.992C94.1876 156.309 92.3089 158.188 89.9914 158.188C87.674 158.188 85.7953 156.309 85.7953 153.992C85.7953 151.674 87.674 149.796 89.9914 149.796C92.3089 149.796 94.1876 151.674 94.1876 153.992Z" fill="#E4E4E7"/>
<path fill-rule="evenodd" clip-rule="evenodd" d="M89.9918 162.584C94.7371 162.584 98.5839 158.737 98.5839 153.992C98.5839 149.246 94.7371 145.4 89.9918 145.4C85.2465 145.4 81.3996 149.246 81.3996 153.992C81.3996 158.737 85.2465 162.584 89.9918 162.584ZM89.9918 162.984C94.9578 162.984 98.9835 158.958 98.9835 153.992C98.9835 149.026 94.9578 145 89.9918 145C85.0257 145 81 149.026 81 153.992C81 158.958 85.0257 162.984 89.9918 162.984Z" fill="#E4E4E7"/>
<path d="M83.1876 8.99168C83.1876 11.3091 81.3089 13.1878 78.9914 13.1878C76.674 13.1878 74.7953 11.3091 74.7953 8.99168C74.7953 6.6742 76.674 4.79552 78.9914 4.79552C81.3089 4.79552 83.1876 6.6742 83.1876 8.99168Z" fill="#E4E4E7"/>
<path fill-rule="evenodd" clip-rule="evenodd" d="M78.9918 17.5839C83.7371 17.5839 87.5839 13.7371 87.5839 8.99176C87.5839 4.24646 83.7371 0.399634 78.9918 0.399634C74.2465 0.399634 70.3996 4.24646 70.3996 8.99176C70.3996 13.7371 74.2465 17.5839 78.9918 17.5839ZM78.9918 17.9835C83.9578 17.9835 87.9835 13.9578 87.9835 8.99176C87.9835 4.02575 83.9578 0 78.9918 0C74.0257 0 70 4.02575 70 8.99176C70 13.9578 74.0257 17.9835 78.9918 17.9835Z" fill="#E4E4E7"/>
</svg>
