<svg width="541" height="325" viewBox="0 0 541 325" fill="none" xmlns="http://www.w3.org/2000/svg">
<path d="M351 176C409.556 180.103 549.861 215.046 517.109 310" stroke="#3B3E4C"/>
<path d="M267 31C354.556 39.5331 582.145 112.521 533.174 310" stroke="#3B3E4C"/>
<path d="M352.188 175.992C352.188 178.309 350.309 180.188 347.991 180.188C345.674 180.188 343.795 178.309 343.795 175.992C343.795 173.674 345.674 171.796 347.991 171.796C350.309 171.796 352.188 173.674 352.188 175.992Z" fill="#3B3E4C"/>
<path fill-rule="evenodd" clip-rule="evenodd" d="M347.992 184.584C352.737 184.584 356.584 180.737 356.584 175.992C356.584 171.246 352.737 167.4 347.992 167.4C343.246 167.4 339.4 171.246 339.4 175.992C339.4 180.737 343.246 184.584 347.992 184.584ZM347.992 184.984C352.958 184.984 356.984 180.958 356.984 175.992C356.984 171.026 352.958 167 347.992 167C343.026 167 339 171.026 339 175.992C339 180.958 343.026 184.984 347.992 184.984Z" fill="#3B3E4C"/>
<path d="M271.188 30.9917C271.188 33.3091 269.309 35.1878 266.991 35.1878C264.674 35.1878 262.795 33.3091 262.795 30.9917C262.795 28.6742 264.674 26.7955 266.991 26.7955C269.309 26.7955 271.188 28.6742 271.188 30.9917Z" fill="#3B3E4C"/>
<path fill-rule="evenodd" clip-rule="evenodd" d="M266.992 39.5839C271.737 39.5839 275.584 35.7371 275.584 30.9918C275.584 26.2465 271.737 22.3996 266.992 22.3996C262.246 22.3996 258.4 26.2465 258.4 30.9918C258.4 35.7371 262.246 39.5839 266.992 39.5839ZM266.992 39.9835C271.958 39.9835 275.984 35.9578 275.984 30.9918C275.984 26.0257 271.958 22 266.992 22C262.026 22 258 26.0257 258 30.9918C258 35.9578 262.026 39.9835 266.992 39.9835Z" fill="#3B3E4C"/>
</svg>
