<svg width="184" height="310" viewBox="0 0 184 310" fill="none" xmlns="http://www.w3.org/2000/svg">
<path d="M89.4995 189C59.1406 192.451 0.54802 224.129 17.5284 304" stroke="#3B3E4C"/>
<path d="M130.5 9C85.9832 18.0326 -20.6811 94.9594 4.21785 304" stroke="#3B3E4C"/>
<path d="M85.7182 188.992C85.7182 191.309 87.5968 193.188 89.9143 193.188C92.2318 193.188 94.1105 191.309 94.1105 188.992C94.1105 186.674 92.2318 184.796 89.9143 184.796C87.5968 184.796 85.7182 186.674 85.7182 188.992Z" fill="#3B3E4C"/>
<path fill-rule="evenodd" clip-rule="evenodd" d="M89.914 197.584C85.1687 197.584 81.3219 193.737 81.3219 188.992C81.3219 184.246 85.1687 180.4 89.914 180.4C94.6593 180.4 98.5061 184.246 98.5061 188.992C98.5061 193.737 94.6593 197.584 89.914 197.584ZM89.914 197.984C84.948 197.984 80.9222 193.958 80.9222 188.992C80.9222 184.026 84.948 180 89.914 180C94.88 180 98.9058 184.026 98.9058 188.992C98.9058 193.958 94.88 197.984 89.914 197.984Z" fill="#3B3E4C"/>
<path d="M128.718 8.99168C128.718 11.3091 130.597 13.1878 132.914 13.1878C135.232 13.1878 137.11 11.3091 137.11 8.99168C137.11 6.6742 135.232 4.79552 132.914 4.79552C130.597 4.79552 128.718 6.6742 128.718 8.99168Z" fill="#3B3E4C"/>
<path fill-rule="evenodd" clip-rule="evenodd" d="M132.914 17.5839C128.169 17.5839 124.322 13.7371 124.322 8.99176C124.322 4.24646 128.169 0.399634 132.914 0.399634C137.659 0.399634 141.506 4.24646 141.506 8.99176C141.506 13.7371 137.659 17.5839 132.914 17.5839ZM132.914 17.9835C127.948 17.9835 123.922 13.9578 123.922 8.99176C123.922 4.02575 127.948 0 132.914 0C137.88 0 141.906 4.02575 141.906 8.99176C141.906 13.9578 137.88 17.9835 132.914 17.9835Z" fill="#3B3E4C"/>
</svg>
