<svg width="185" height="310" viewBox="0 0 185 310" fill="none" xmlns="http://www.w3.org/2000/svg">
<path d="M90 189C59.6411 192.451 1.04851 224.129 18.0289 304" stroke="#E4E4E7"/>
<path d="M131 9C86.4837 18.0326 -20.1806 94.9594 4.71834 304" stroke="#E4E4E7"/>
<path d="M86.2186 188.992C86.2186 191.309 88.0973 193.188 90.4148 193.188C92.7323 193.188 94.611 191.309 94.611 188.992C94.611 186.674 92.7323 184.796 90.4148 184.796C88.0973 184.796 86.2186 186.674 86.2186 188.992Z" fill="#E4E4E7"/>
<path fill-rule="evenodd" clip-rule="evenodd" d="M90.4145 197.584C85.6692 197.584 81.8224 193.737 81.8224 188.992C81.8224 184.246 85.6692 180.4 90.4145 180.4C95.1598 180.4 99.0066 184.246 99.0066 188.992C99.0066 193.737 95.1598 197.584 90.4145 197.584ZM90.4145 197.984C85.4485 197.984 81.4227 193.958 81.4227 188.992C81.4227 184.026 85.4485 180 90.4145 180C95.3805 180 99.4062 184.026 99.4062 188.992C99.4062 193.958 95.3805 197.984 90.4145 197.984Z" fill="#E4E4E7"/>
<path d="M129.219 8.99168C129.219 11.3091 131.097 13.1878 133.415 13.1878C135.732 13.1878 137.611 11.3091 137.611 8.99168C137.611 6.6742 135.732 4.79552 133.415 4.79552C131.097 4.79552 129.219 6.6742 129.219 8.99168Z" fill="#E4E4E7"/>
<path fill-rule="evenodd" clip-rule="evenodd" d="M133.414 17.5839C128.669 17.5839 124.822 13.7371 124.822 8.99176C124.822 4.24646 128.669 0.399634 133.414 0.399634C138.16 0.399634 142.007 4.24646 142.007 8.99176C142.007 13.7371 138.16 17.5839 133.414 17.5839ZM133.414 17.9835C128.448 17.9835 124.423 13.9578 124.423 8.99176C124.423 4.02575 128.448 0 133.414 0C138.381 0 142.406 4.02575 142.406 8.99176C142.406 13.9578 138.381 17.9835 133.414 17.9835Z" fill="#E4E4E7"/>
</svg>
