<svg width="184" height="305" viewBox="0 0 184 305" fill="none" xmlns="http://www.w3.org/2000/svg">
<path d="M171.406 9C132.004 28 71.0039 72 71.0039 164" stroke="#3B3E4C"/>
<path d="M170.219 8.99168C170.219 11.3091 172.097 13.1878 174.415 13.1878C176.732 13.1878 178.611 11.3091 178.611 8.99168C178.611 6.6742 176.732 4.79552 174.415 4.79552C172.097 4.79552 170.219 6.6742 170.219 8.99168Z" fill="#3B3E4C"/>
<path fill-rule="evenodd" clip-rule="evenodd" d="M174.414 17.5839C169.669 17.5839 165.822 13.7371 165.822 8.99176C165.822 4.24646 169.669 0.399634 174.414 0.399634C179.16 0.399634 183.007 4.24646 183.007 8.99176C183.007 13.7371 179.16 17.5839 174.414 17.5839ZM174.414 17.9835C169.448 17.9835 165.423 13.9578 165.423 8.99176C165.423 4.02575 169.448 0 174.414 0C179.381 0 183.406 4.02575 183.406 8.99176C183.406 13.9578 179.381 17.9835 174.414 17.9835Z" fill="#3B3E4C"/>
</svg>
