<svg width="24" height="24" viewBox="0 0 24 24" fill="none" xmlns="http://www.w3.org/2000/svg">
<g clip-path="url(#clip0_65_15571)">
<path d="M3.75516 6.16656C5.266 6.16656 6.49078 4.94178 6.49078 3.43094C6.49078 1.92009 5.266 0.695312 3.75516 0.695312C2.24431 0.695312 1.01953 1.92009 1.01953 3.43094C1.01953 4.94178 2.24431 6.16656 3.75516 6.16656Z" fill="#F97968"/>
<path fill-rule="evenodd" clip-rule="evenodd" d="M3.51953 0.705289C3.59713 0.698701 3.67558 0.695312 3.75483 0.695312C5.26466 0.695312 6.49045 1.9211 6.49045 3.43094C6.49045 4.94072 5.26466 6.16651 3.75483 6.16651C3.67558 6.16651 3.59713 6.16317 3.51953 6.15654C4.91939 6.03705 6.01986 4.86148 6.01986 3.43094C6.01986 2.00035 4.91939 0.824771 3.51953 0.705289Z" fill="#F97968"/>
<path d="M20.2473 6.16656C21.7582 6.16656 22.983 4.94178 22.983 3.43094C22.983 1.92009 21.7582 0.695312 20.2473 0.695312C18.7365 0.695312 17.5117 1.92009 17.5117 3.43094C17.5117 4.94178 18.7365 6.16656 20.2473 6.16656Z" fill="#F97968"/>
<path fill-rule="evenodd" clip-rule="evenodd" d="M20.0117 0.705289C20.0893 0.698701 20.1677 0.695312 20.247 0.695312C21.7568 0.695312 22.9826 1.9211 22.9826 3.43094C22.9826 4.94072 21.7568 6.16651 20.247 6.16651C20.1677 6.16651 20.0893 6.16317 20.0117 6.15654C21.4115 6.03705 22.512 4.86148 22.512 3.43094C22.512 2.00035 21.4115 0.824771 20.0117 0.705289Z" fill="#F97968"/>
<path d="M20.2473 23.2837C21.7582 23.2837 22.983 22.059 22.983 20.5481C22.983 19.0373 21.7582 17.8125 20.2473 17.8125C18.7365 17.8125 17.5117 19.0373 17.5117 20.5481C17.5117 22.059 18.7365 23.2837 20.2473 23.2837Z" fill="#F97968"/>
<path fill-rule="evenodd" clip-rule="evenodd" d="M20.0117 17.8225C20.0893 17.8159 20.1677 17.8125 20.247 17.8125C21.7568 17.8125 22.9826 19.0383 22.9826 20.5481C22.9826 22.058 21.7568 23.2837 20.247 23.2837C20.1677 23.2837 20.0893 23.2804 20.0117 23.2737C21.4115 23.1542 22.512 21.9787 22.512 20.5481C22.512 19.1175 21.4115 17.942 20.0117 17.8225Z" fill="#F97968"/>
<path d="M3.75516 23.2837C5.266 23.2837 6.49078 22.059 6.49078 20.5481C6.49078 19.0373 5.266 17.8125 3.75516 17.8125C2.24431 17.8125 1.01953 19.0373 1.01953 20.5481C1.01953 22.059 2.24431 23.2837 3.75516 23.2837Z" fill="#F97968"/>
<path fill-rule="evenodd" clip-rule="evenodd" d="M3.51953 17.8225C3.59713 17.8159 3.67558 17.8125 3.75483 17.8125C5.26466 17.8125 6.49045 19.0383 6.49045 20.5481C6.49045 22.058 5.26466 23.2837 3.75483 23.2837C3.67558 23.2837 3.59713 23.2804 3.51953 23.2737C4.91939 23.1542 6.01986 21.9787 6.01986 20.5481C6.01986 19.1175 4.91939 17.942 3.51953 17.8225Z" fill="#F97968"/>
<path fill-rule="evenodd" clip-rule="evenodd" d="M14.7539 11.0938H15.3016C15.5732 11.0938 15.7946 11.3151 15.7946 11.5867V16.8352C15.7946 17.1062 15.5732 17.3276 15.3016 17.3276H14.7539C15.0255 17.3276 15.2468 17.1062 15.2468 16.8352V11.5867C15.2468 11.3151 15.0255 11.0938 14.7539 11.0938Z" fill="#685E68"/>
<path fill-rule="evenodd" clip-rule="evenodd" d="M12.0032 12.3398C12.5332 12.3398 12.9629 12.7694 12.9629 13.2995C12.9629 13.6453 12.7803 13.9482 12.5065 14.1171V15.5817C12.5065 15.8584 12.2799 16.0849 12.0032 16.0849C11.7259 16.0849 11.4994 15.8584 11.4994 15.5817V14.1171C11.2256 13.9482 11.043 13.6453 11.043 13.2995C11.043 12.7694 11.4726 12.3398 12.0032 12.3398Z" fill="#F97968"/>
<path fill-rule="evenodd" clip-rule="evenodd" d="M12.1508 4.44893L18.6065 7.21613C18.7449 7.27547 18.8346 7.41156 18.8346 7.56215V12.7823C18.8346 16.5971 16.0584 19.8935 12.3026 20.5483L12.0673 20.5894C12.0244 20.5969 11.9805 20.5969 11.9376 20.5894L11.7026 20.5483C7.94655 19.8935 5.17027 16.5971 5.17027 12.7823V7.56215C5.17027 7.41156 5.26001 7.27547 5.39841 7.21613L11.8541 4.44893C11.9489 4.40831 12.0561 4.40831 12.1508 4.44893ZM12.0025 5.2045L5.92321 7.81038V12.7823C5.92321 16.2328 8.43456 19.2143 11.8319 19.8066L12.0025 19.8364L12.173 19.8066C15.5704 19.2143 18.0817 16.2328 18.0817 12.7823V7.81038L12.0025 5.2045ZM14.9678 10.977H15.1723C15.6411 10.977 16.0213 11.3591 16.0213 11.826V16.8645C16.0213 17.3333 15.6411 17.7134 15.1723 17.7134H8.83366C8.3651 17.7134 7.98364 17.333 7.98364 16.8645V11.826C7.98364 11.3594 8.3651 10.977 8.83366 10.977H9.03714V10.266C9.03714 8.63485 10.3719 7.30008 12.003 7.30008C13.6342 7.30008 14.9678 8.63481 14.9678 10.266V10.977ZM9.79008 10.977H10.2233V10.266C10.2233 9.2886 11.027 8.48516 12.003 8.48516C12.979 8.48516 13.7827 9.2886 13.7827 10.266V10.977H14.2148V10.266C14.2148 9.04902 13.22 8.05302 12.003 8.05302C10.786 8.05302 9.79008 9.04897 9.79008 10.266V10.977ZM10.9762 10.977H13.0298V10.266C13.0298 9.70196 12.5662 9.2381 12.003 9.2381C11.4398 9.2381 10.9762 9.70196 10.9762 10.266V10.977ZM8.83366 11.73C8.78039 11.73 8.73658 11.7729 8.73658 11.826V16.8645C8.73658 16.9177 8.78039 16.9605 8.83366 16.9605H15.1723C15.2254 16.9605 15.2683 16.9175 15.2683 16.8645V11.826C15.2683 11.7732 15.2254 11.73 15.1723 11.73H8.83366ZM12.003 12.1709C12.7195 12.1709 13.3003 12.7528 13.3003 13.4693C13.3003 13.857 13.1316 14.2043 12.8629 14.4419V15.6597C12.8629 16.1335 12.4749 16.5196 12.003 16.5196C11.5292 16.5196 11.1431 16.1335 11.1431 15.6597C11.1431 15.6597 11.1431 14.442 11.1431 14.442C10.8741 14.2043 10.7046 13.8569 10.7046 13.4693C10.7046 12.7529 11.2866 12.1709 12.003 12.1709ZM12.003 12.9238C11.702 12.9238 11.4575 13.1683 11.4575 13.4693C11.4575 13.6659 11.5614 13.8378 11.7171 13.9338C11.8283 14.0023 11.896 14.1236 11.896 14.2542V15.6597C11.896 15.7186 11.9441 15.7666 12.003 15.7666C12.0617 15.7666 12.11 15.7186 12.11 15.6597V14.2542C12.11 14.1236 12.1777 14.0023 12.2889 13.9338C12.4445 13.8378 12.5474 13.6658 12.5474 13.4693C12.5474 13.1685 12.3038 12.9238 12.003 12.9238ZM3.75658 0.328125C5.47423 0.328125 6.86867 1.72262 6.86867 3.44022C6.86867 5.15782 5.47423 6.55231 3.75658 6.55231C2.03898 6.55231 0.644531 5.15782 0.644531 3.44022C0.644531 1.72262 2.03898 0.328125 3.75658 0.328125ZM3.75658 1.08107C2.45456 1.08107 1.39747 2.13815 1.39747 3.44022C1.39747 4.74224 2.45456 5.79937 3.75658 5.79937C5.05865 5.79937 6.11573 4.74224 6.11573 3.44022C6.11573 2.13815 5.05865 1.08107 3.75658 1.08107ZM2.2738 3.77989C2.12674 3.63307 2.12655 3.39453 2.27333 3.24747C2.42015 3.10041 2.6587 3.10022 2.80575 3.247L3.2618 3.70234L4.72053 2.3797C4.87446 2.24013 5.11277 2.2518 5.25234 2.40573C5.39187 2.55965 5.38025 2.79796 5.22632 2.93749L3.50223 4.50074C3.35357 4.63547 3.12533 4.63001 2.98335 4.48827L2.2738 3.77989ZM20.2483 0.328125C21.9659 0.328125 23.3604 1.72262 23.3604 3.44022C23.3604 5.15782 21.9659 6.55231 20.2483 6.55231C18.5307 6.55231 17.1362 5.15782 17.1362 3.44022C17.1362 1.72262 18.5307 0.328125 20.2483 0.328125ZM20.2483 1.08107C18.9463 1.08107 17.8892 2.13815 17.8892 3.44022C17.8892 4.74224 18.9463 5.79937 20.2483 5.79937C21.5504 5.79937 22.6074 4.74224 22.6074 3.44022C22.6074 2.13815 21.5504 1.08107 20.2483 1.08107ZM18.7655 3.77989C18.6185 3.63307 18.6183 3.39453 18.765 3.24747C18.9119 3.10041 19.1504 3.10022 19.2975 3.247L19.7536 3.70234L21.2123 2.3797C21.3662 2.24013 21.6045 2.2518 21.7441 2.40573C21.8836 2.55965 21.872 2.79796 21.718 2.93749L19.9939 4.50074C19.8453 4.63547 19.6171 4.63001 19.4751 4.48827L18.7655 3.77989ZM20.2483 17.4451C21.9659 17.4451 23.3604 18.8396 23.3604 20.5572C23.3604 22.2748 21.9659 23.6693 20.2483 23.6693C18.5307 23.6693 17.1362 22.2748 17.1362 20.5572C17.1362 18.8396 18.5307 17.4451 20.2483 17.4451ZM20.2483 18.1981C18.9463 18.1981 17.8892 19.2552 17.8892 20.5572C17.8892 21.8593 18.9463 22.9164 20.2483 22.9164C21.5504 22.9164 22.6074 21.8593 22.6074 20.5572C22.6074 19.2552 21.5504 18.1981 20.2483 18.1981ZM18.7655 20.8969C18.6185 20.7501 18.6183 20.5115 18.765 20.3645C18.9119 20.2174 19.1504 20.2172 19.2975 20.364L19.7536 20.8193L21.2123 19.4967C21.3662 19.3572 21.6045 19.3688 21.7441 19.5227C21.8836 19.6766 21.872 19.9149 21.718 20.0545L19.9939 21.6177C19.8453 21.7525 19.6171 21.747 19.4751 21.6053L18.7655 20.8969ZM3.75658 17.4451C5.47423 17.4451 6.86867 18.8396 6.86867 20.5572C6.86867 22.2748 5.47423 23.6693 3.75658 23.6693C2.03898 23.6693 0.644531 22.2748 0.644531 20.5572C0.644531 18.8396 2.03898 17.4451 3.75658 17.4451ZM3.75658 18.1981C2.45456 18.1981 1.39747 19.2552 1.39747 20.5572C1.39747 21.8593 2.45456 22.9164 3.75658 22.9164C5.05865 22.9164 6.11573 21.8593 6.11573 20.5572C6.11573 19.2552 5.05865 18.1981 3.75658 18.1981ZM2.2738 20.8969C2.12674 20.7501 2.12655 20.5115 2.27333 20.3645C2.42015 20.2174 2.6587 20.2172 2.80575 20.364L3.2618 20.8193L4.72053 19.4967C4.87446 19.3572 5.11277 19.3688 5.25234 19.5227C5.39187 19.6766 5.38025 19.9149 5.22632 20.0545L3.50223 21.6177C3.35357 21.7525 3.12533 21.747 2.98335 21.6053L2.2738 20.8969ZM2.83912 16.3425C2.91954 16.5341 2.82924 16.7549 2.63761 16.8353C2.44604 16.9157 2.22524 16.8254 2.14481 16.6338C1.61197 15.3637 1.31733 13.9694 1.31733 12.5068C1.31733 10.6783 1.77766 8.9566 2.58844 7.45109C2.68698 7.26817 2.9155 7.19961 3.09841 7.29815C3.28138 7.39664 3.3499 7.62516 3.25135 7.80813C2.49785 9.20728 2.07027 10.8075 2.07027 12.5068C2.07027 13.8661 2.34387 15.1621 2.83912 16.3425ZM15.8522 21.6642C16.0436 21.5835 16.2646 21.6734 16.3453 21.8649C16.426 22.0564 16.3361 22.2773 16.1446 22.3581C14.8705 22.8949 13.4709 23.1919 12.0025 23.1919C10.4635 23.1919 9.00011 22.8657 7.67761 22.279C7.48768 22.1948 7.4019 21.9722 7.48613 21.7822C7.57041 21.5923 7.793 21.5065 7.98293 21.5908C9.21206 22.136 10.5722 22.4389 12.0025 22.4389C13.3672 22.4389 14.6681 22.1632 15.8522 21.6642ZM20.7423 7.78723C20.6433 7.6045 20.7113 7.37584 20.894 7.27688C21.0767 7.17791 21.3054 7.24591 21.4043 7.4286C22.2226 8.93947 22.6876 10.6693 22.6876 12.5068C22.6876 13.9695 22.393 15.3639 21.86 16.634C21.7796 16.8256 21.5588 16.9159 21.3672 16.8355C21.1756 16.7551 21.0853 16.5343 21.1657 16.3427C21.661 15.1622 21.9346 13.8662 21.9346 12.5068C21.9346 10.799 21.5028 9.19137 20.7423 7.78723ZM8.24561 3.31076C8.05333 3.38949 7.83328 3.29725 7.75455 3.10497C7.67583 2.91269 7.76801 2.69269 7.9603 2.61396C9.2075 2.10328 10.5723 1.82163 12.0025 1.82163C13.4625 1.82163 14.8544 2.11518 16.1226 2.64624C16.3143 2.72648 16.4047 2.94723 16.3244 3.1389C16.2442 3.33057 16.0234 3.42102 15.8318 3.34074C14.6531 2.84718 13.3594 2.57457 12.0025 2.57457C10.6733 2.57457 9.40477 2.83612 8.24561 3.31076Z" fill="#080C1D"/>
</g>
<defs>
<clipPath id="clip0_65_15571">
<rect width="24" height="24" fill="white"/>
</clipPath>
</defs>
</svg>
