<svg width="24" height="24" viewBox="0 0 24 24" fill="none" xmlns="http://www.w3.org/2000/svg">
<g clip-path="url(#clip0_65_4624)">
<path d="M3.75516 6.16656C5.266 6.16656 6.49078 4.94178 6.49078 3.43094C6.49078 1.92009 5.266 0.695312 3.75516 0.695312C2.24431 0.695312 1.01953 1.92009 1.01953 3.43094C1.01953 4.94178 2.24431 6.16656 3.75516 6.16656Z" fill="#F97968"/>
<path fill-rule="evenodd" clip-rule="evenodd" d="M3.51953 0.705289C3.59713 0.698701 3.67558 0.695312 3.75483 0.695312C5.26466 0.695312 6.49045 1.9211 6.49045 3.43094C6.49045 4.94072 5.26466 6.16651 3.75483 6.16651C3.67558 6.16651 3.59713 6.16317 3.51953 6.15654C4.91939 6.03705 6.01986 4.86148 6.01986 3.43094C6.01986 2.00035 4.91939 0.824771 3.51953 0.705289Z" fill="#F97968"/>
<path d="M20.2473 6.16656C21.7582 6.16656 22.983 4.94178 22.983 3.43094C22.983 1.92009 21.7582 0.695312 20.2473 0.695312C18.7365 0.695312 17.5117 1.92009 17.5117 3.43094C17.5117 4.94178 18.7365 6.16656 20.2473 6.16656Z" fill="#F97968"/>
<path fill-rule="evenodd" clip-rule="evenodd" d="M20.0117 0.705289C20.0893 0.698701 20.1677 0.695312 20.247 0.695312C21.7568 0.695312 22.9826 1.9211 22.9826 3.43094C22.9826 4.94072 21.7568 6.16651 20.247 6.16651C20.1677 6.16651 20.0893 6.16317 20.0117 6.15654C21.4115 6.03705 22.512 4.86148 22.512 3.43094C22.512 2.00035 21.4115 0.824771 20.0117 0.705289Z" fill="#F97968"/>
<path d="M20.2473 23.2837C21.7582 23.2837 22.983 22.059 22.983 20.5481C22.983 19.0373 21.7582 17.8125 20.2473 17.8125C18.7365 17.8125 17.5117 19.0373 17.5117 20.5481C17.5117 22.059 18.7365 23.2837 20.2473 23.2837Z" fill="#F97968"/>
<path fill-rule="evenodd" clip-rule="evenodd" d="M20.0117 17.8225C20.0893 17.8159 20.1677 17.8125 20.247 17.8125C21.7568 17.8125 22.9826 19.0383 22.9826 20.5481C22.9826 22.058 21.7568 23.2837 20.247 23.2837C20.1677 23.2837 20.0893 23.2804 20.0117 23.2737C21.4115 23.1542 22.512 21.9787 22.512 20.5481C22.512 19.1175 21.4115 17.942 20.0117 17.8225Z" fill="#F97968"/>
<path d="M3.75516 23.2837C5.266 23.2837 6.49078 22.059 6.49078 20.5481C6.49078 19.0373 5.266 17.8125 3.75516 17.8125C2.24431 17.8125 1.01953 19.0373 1.01953 20.5481C1.01953 22.059 2.24431 23.2837 3.75516 23.2837Z" fill="#F97968"/>
<path fill-rule="evenodd" clip-rule="evenodd" d="M3.51953 17.8225C3.59713 17.8159 3.67558 17.8125 3.75483 17.8125C5.26466 17.8125 6.49045 19.0383 6.49045 20.5481C6.49045 22.058 5.26466 23.2837 3.75483 23.2837C3.67558 23.2837 3.59713 23.2804 3.51953 23.2737C4.91939 23.1542 6.01986 21.9787 6.01986 20.5481C6.01986 19.1175 4.91939 17.942 3.51953 17.8225Z" fill="#F97968"/>
<path fill-rule="evenodd" clip-rule="evenodd" d="M14.7539 11.0957H15.3016C15.5732 11.0957 15.7946 11.3171 15.7946 11.5886V16.8372C15.7946 17.1082 15.5732 17.3295 15.3016 17.3295H14.7539C15.0255 17.3295 15.2468 17.1082 15.2468 16.8372V11.5886C15.2468 11.3171 15.0255 11.0957 14.7539 11.0957Z" fill="#685E68"/>
<path fill-rule="evenodd" clip-rule="evenodd" d="M12.0032 12.3398C12.5332 12.3398 12.9629 12.7694 12.9629 13.2995C12.9629 13.6453 12.7803 13.9482 12.5065 14.1171V15.5817C12.5065 15.8584 12.2799 16.0849 12.0032 16.0849C11.7259 16.0849 11.4994 15.8584 11.4994 15.5817V14.1171C11.2256 13.9482 11.043 13.6453 11.043 13.2995C11.043 12.7694 11.4726 12.3398 12.0032 12.3398Z" fill="#F97968"/>
<path fill-rule="evenodd" clip-rule="evenodd" d="M12.1508 4.45088L18.6065 7.21808C18.7449 7.27742 18.8346 7.41351 18.8346 7.5641V12.7843C18.8346 16.599 16.0584 19.8955 12.3026 20.5503L12.0673 20.5914C12.0244 20.5989 11.9805 20.5989 11.9376 20.5914L11.7026 20.5503C7.94655 19.8955 5.17027 16.599 5.17027 12.7843V7.5641C5.17027 7.41351 5.26001 7.27742 5.39841 7.21808L11.8541 4.45088C11.9489 4.41027 12.0561 4.41027 12.1508 4.45088ZM12.0025 5.20645L5.92321 7.81234V12.7843C5.92321 16.2347 8.43456 19.2163 11.8319 19.8085L12.0025 19.8384L12.173 19.8085C15.5704 19.2163 18.0817 16.2347 18.0817 12.7843V7.81234L12.0025 5.20645ZM14.9678 10.979H15.1723C15.6411 10.979 16.0213 11.3611 16.0213 11.8279V16.8664C16.0213 17.3352 15.6411 17.7153 15.1723 17.7153H8.83366C8.3651 17.7153 7.98364 17.335 7.98364 16.8664V11.8279C7.98364 11.3613 8.3651 10.979 8.83366 10.979H9.03714V10.2679C9.03714 8.63681 10.3719 7.30203 12.003 7.30203C13.6342 7.30203 14.9678 8.63676 14.9678 10.2679V10.979ZM9.79008 10.979H10.2233V10.2679C10.2233 9.29055 11.027 8.48711 12.003 8.48711C12.979 8.48711 13.7827 9.29055 13.7827 10.2679V10.979H14.2148V10.2679C14.2148 9.05097 13.22 8.05497 12.003 8.05497C10.786 8.05497 9.79008 9.05093 9.79008 10.2679V10.979ZM10.9762 10.979H13.0298V10.2679C13.0298 9.70391 12.5662 9.24006 12.003 9.24006C11.4398 9.24006 10.9762 9.70391 10.9762 10.2679V10.979ZM8.83366 11.7319C8.78039 11.7319 8.73658 11.7749 8.73658 11.8279V16.8664C8.73658 16.9197 8.78039 16.9624 8.83366 16.9624H15.1723C15.2254 16.9624 15.2683 16.9194 15.2683 16.8664V11.8279C15.2683 11.7751 15.2254 11.7319 15.1723 11.7319H8.83366ZM12.003 12.1728C12.7195 12.1728 13.3003 12.7547 13.3003 13.4713C13.3003 13.8589 13.1316 14.2062 12.8629 14.4439V15.6616C12.8629 16.1354 12.4749 16.5215 12.003 16.5215C11.5292 16.5215 11.1431 16.1354 11.1431 15.6616C11.1431 15.6616 11.1431 14.4439 11.1431 14.444C10.8741 14.2063 10.7046 13.8589 10.7046 13.4713C10.7046 12.7549 11.2866 12.1728 12.003 12.1728ZM12.003 12.9257C11.702 12.9257 11.4575 13.1703 11.4575 13.4713C11.4575 13.6678 11.5614 13.8397 11.7171 13.9357C11.8283 14.0043 11.896 14.1256 11.896 14.2561V15.6616C11.896 15.7205 11.9441 15.7686 12.003 15.7686C12.0617 15.7686 12.11 15.7205 12.11 15.6616V14.2561C12.11 14.1256 12.1777 14.0043 12.2889 13.9357C12.4445 13.8397 12.5474 13.6678 12.5474 13.4713C12.5474 13.1704 12.3038 12.9257 12.003 12.9257ZM3.75658 0.330078C5.47423 0.330078 6.86867 1.72457 6.86867 3.44217C6.86867 5.15977 5.47423 6.55427 3.75658 6.55427C2.03898 6.55427 0.644531 5.15977 0.644531 3.44217C0.644531 1.72457 2.03898 0.330078 3.75658 0.330078ZM3.75658 1.08302C2.45456 1.08302 1.39747 2.1401 1.39747 3.44217C1.39747 4.7442 2.45456 5.80133 3.75658 5.80133C5.05865 5.80133 6.11573 4.7442 6.11573 3.44217C6.11573 2.1401 5.05865 1.08302 3.75658 1.08302ZM2.2738 3.78184C2.12674 3.63502 2.12655 3.39648 2.27333 3.24942C2.42015 3.10236 2.6587 3.10217 2.80575 3.24895L3.2618 3.70429L4.72053 2.38165C4.87446 2.24208 5.11277 2.25375 5.25234 2.40768C5.39187 2.56161 5.38025 2.79991 5.22632 2.93944L3.50223 4.50269C3.35357 4.63742 3.12533 4.63196 2.98335 4.49022L2.2738 3.78184ZM20.2483 0.330078C21.9659 0.330078 23.3604 1.72457 23.3604 3.44217C23.3604 5.15977 21.9659 6.55427 20.2483 6.55427C18.5307 6.55427 17.1362 5.15977 17.1362 3.44217C17.1362 1.72457 18.5307 0.330078 20.2483 0.330078ZM20.2483 1.08302C18.9463 1.08302 17.8892 2.1401 17.8892 3.44217C17.8892 4.7442 18.9463 5.80133 20.2483 5.80133C21.5504 5.80133 22.6074 4.7442 22.6074 3.44217C22.6074 2.1401 21.5504 1.08302 20.2483 1.08302ZM18.7655 3.78184C18.6185 3.63502 18.6183 3.39648 18.765 3.24942C18.9119 3.10236 19.1504 3.10217 19.2975 3.24895L19.7536 3.70429L21.2123 2.38165C21.3662 2.24208 21.6045 2.25375 21.7441 2.40768C21.8836 2.56161 21.872 2.79991 21.718 2.93944L19.9939 4.50269C19.8453 4.63742 19.6171 4.63196 19.4751 4.49022L18.7655 3.78184ZM20.2483 17.4471C21.9659 17.4471 23.3604 18.8416 23.3604 20.5592C23.3604 22.2768 21.9659 23.6713 20.2483 23.6713C18.5307 23.6713 17.1362 22.2768 17.1362 20.5592C17.1362 18.8416 18.5307 17.4471 20.2483 17.4471ZM20.2483 18.2C18.9463 18.2 17.8892 19.2571 17.8892 20.5592C17.8892 21.8612 18.9463 22.9183 20.2483 22.9183C21.5504 22.9183 22.6074 21.8612 22.6074 20.5592C22.6074 19.2571 21.5504 18.2 20.2483 18.2ZM18.7655 20.8988C18.6185 20.7521 18.6183 20.5135 18.765 20.3664C18.9119 20.2194 19.1504 20.2192 19.2975 20.366L19.7536 20.8213L21.2123 19.4986C21.3662 19.3591 21.6045 19.3708 21.7441 19.5247C21.8836 19.6786 21.872 19.9169 21.718 20.0565L19.9939 21.6197C19.8453 21.7545 19.6171 21.7489 19.4751 21.6072L18.7655 20.8988ZM3.75658 17.4471C5.47423 17.4471 6.86867 18.8416 6.86867 20.5592C6.86867 22.2768 5.47423 23.6713 3.75658 23.6713C2.03898 23.6713 0.644531 22.2768 0.644531 20.5592C0.644531 18.8416 2.03898 17.4471 3.75658 17.4471ZM3.75658 18.2C2.45456 18.2 1.39747 19.2571 1.39747 20.5592C1.39747 21.8612 2.45456 22.9183 3.75658 22.9183C5.05865 22.9183 6.11573 21.8612 6.11573 20.5592C6.11573 19.2571 5.05865 18.2 3.75658 18.2ZM2.2738 20.8988C2.12674 20.7521 2.12655 20.5135 2.27333 20.3664C2.42015 20.2194 2.6587 20.2192 2.80575 20.366L3.2618 20.8213L4.72053 19.4986C4.87446 19.3591 5.11277 19.3708 5.25234 19.5247C5.39187 19.6786 5.38025 19.9169 5.22632 20.0565L3.50223 21.6197C3.35357 21.7545 3.12533 21.7489 2.98335 21.6072L2.2738 20.8988ZM2.83912 16.3444C2.91954 16.536 2.82924 16.7569 2.63761 16.8372C2.44604 16.9176 2.22524 16.8273 2.14481 16.6357C1.61197 15.3657 1.31733 13.9713 1.31733 12.5087C1.31733 10.6803 1.77766 8.95855 2.58844 7.45304C2.68698 7.27013 2.9155 7.20156 3.09841 7.3001C3.28138 7.3986 3.3499 7.62711 3.25135 7.81008C2.49785 9.20923 2.07027 10.8095 2.07027 12.5087C2.07027 13.8681 2.34387 15.1641 2.83912 16.3444ZM15.8522 21.6662C16.0436 21.5855 16.2646 21.6754 16.3453 21.8669C16.426 22.0584 16.3361 22.2793 16.1446 22.36C14.8705 22.8969 13.4709 23.1938 12.0025 23.1938C10.4635 23.1938 9.00011 22.8677 7.67761 22.2809C7.48768 22.1967 7.4019 21.9741 7.48613 21.7842C7.57041 21.5943 7.793 21.5085 7.98293 21.5927C9.21206 22.138 10.5722 22.4409 12.0025 22.4409C13.3672 22.4409 14.6681 22.1651 15.8522 21.6662ZM20.7423 7.78918C20.6433 7.60645 20.7113 7.3778 20.894 7.27883C21.0767 7.17987 21.3054 7.24787 21.4043 7.43055C22.2226 8.94142 22.6876 10.6712 22.6876 12.5087C22.6876 13.9714 22.393 15.3659 21.86 16.636C21.7796 16.8276 21.5588 16.9178 21.3672 16.8375C21.1756 16.7571 21.0853 16.5362 21.1657 16.3447C21.661 15.1642 21.9346 13.8681 21.9346 12.5087C21.9346 10.801 21.5028 9.19333 20.7423 7.78918ZM8.24561 3.31271C8.05333 3.39144 7.83328 3.29921 7.75455 3.10693C7.67583 2.91464 7.76801 2.69464 7.9603 2.61591C9.2075 2.10523 10.5723 1.82358 12.0025 1.82358C13.4625 1.82358 14.8544 2.11714 16.1226 2.6482C16.3143 2.72843 16.4047 2.94918 16.3244 3.14085C16.2442 3.33253 16.0234 3.42297 15.8318 3.34269C14.6531 2.84914 13.3594 2.57653 12.0025 2.57653C10.6733 2.57653 9.40477 2.83808 8.24561 3.31271Z" fill="white"/>
</g>
<defs>
<clipPath id="clip0_65_4624">
<rect width="24" height="24" fill="white"/>
</clipPath>
</defs>
</svg>
