<svg width="105" height="41" viewBox="0 0 105 41" fill="none" xmlns="http://www.w3.org/2000/svg">
<g clip-path="url(#clip0_129_268)">
<path d="M48.1406 35.988H50.875V25.6737H48.1406V35.988ZM48.1406 24.0652H50.875V21.6123H48.1406V24.0652Z" fill="white"/>
<path d="M52.6328 39.3657H55.3672V34.8218H55.4075C55.9905 35.7064 56.9355 36.2895 58.3831 36.2895C61.0371 36.2895 62.8466 34.1784 62.8466 30.8408C62.8466 27.6238 61.0974 25.3921 58.363 25.3921C56.9556 25.3921 55.9905 26.0556 55.327 26.9603H55.2667V25.6736H52.6328V39.3657ZM57.8001 34.0175C56.1715 34.0175 55.3069 32.7911 55.3069 30.9212C55.3069 29.0715 55.9905 27.6037 57.6995 27.6037C59.3884 27.6037 60.072 28.9709 60.072 30.9212C60.072 32.8715 59.1874 34.0175 57.8001 34.0175Z" fill="white"/>
<path d="M68.3021 36.2895C70.8756 36.2895 72.6449 35.0429 72.6449 32.972C72.6449 30.5593 70.7349 30.0768 69.0058 29.7149C67.538 29.4133 66.1708 29.3328 66.1708 28.4482C66.1708 27.7043 66.8745 27.3021 67.9402 27.3021C69.1063 27.3021 69.81 27.7043 69.9306 28.8101H72.4037C72.2026 26.7392 70.6947 25.3921 67.9804 25.3921C65.628 25.3921 63.7782 26.4577 63.7782 28.6894C63.7782 30.9413 65.5878 31.444 67.4375 31.8059C68.8449 32.0873 70.1518 32.1879 70.1518 33.1731C70.1518 33.8969 69.4682 34.3593 68.2618 34.3593C67.0354 34.3593 66.1909 33.8366 66.01 32.6503H63.4766C63.6375 34.8419 65.3063 36.2895 68.3021 36.2895Z" fill="white"/>
<path d="M83.0255 35.9881V25.6738H80.2911V31.6251C80.2911 32.9923 79.507 33.9574 78.2202 33.9574C77.0541 33.9574 76.5112 33.2939 76.5112 32.0875V25.6738H73.7969V32.55C73.7969 34.8018 75.0837 36.2696 77.3758 36.2696C78.8234 36.2696 79.6276 35.7267 80.3314 34.7817H80.3917V35.9881H83.0255Z" fill="white"/>
<path d="M84.7969 35.9879H87.5314V29.9963C87.5314 28.6291 88.2753 27.7445 89.3811 27.7445C90.3864 27.7445 90.9695 28.3476 90.9695 29.5138V35.9879H93.7039V29.9963C93.7039 28.6291 94.4076 27.7445 95.5536 27.7445C96.5589 27.7445 97.142 28.3476 97.142 29.5138V35.9879H99.8764V29.0514C99.8764 26.7995 98.6499 25.3921 96.4785 25.3921C95.1716 25.3921 94.0859 26.0757 93.3822 27.2016H93.342C92.8393 26.1159 91.7938 25.3921 90.4869 25.3921C89.0594 25.3921 88.0541 26.1159 87.4911 27.0609H87.4308V25.6736H84.7969V35.9879Z" fill="white"/>
<path d="M48.1719 18.322H50.9063V3.94629H48.1719V18.322Z" fill="white"/>
<path d="M57.5993 18.6235C60.7962 18.6235 62.9877 16.251 62.9877 13.1748C62.9877 10.0986 60.7962 7.72607 57.5993 7.72607C54.4025 7.72607 52.2109 10.0986 52.2109 13.1748C52.2109 16.251 54.4025 18.6235 57.5993 18.6235ZM57.5993 16.5325C55.9104 16.5325 54.9856 15.1854 54.9856 13.1748C54.9856 11.1642 55.9104 9.79698 57.5993 9.79698C59.2681 9.79698 60.2131 11.1642 60.2131 13.1748C60.2131 15.1854 59.2681 16.5325 57.5993 16.5325Z" fill="white"/>
<path d="M68.7966 21.8405C70.3247 21.8405 71.6517 21.4786 72.5162 20.6743C73.2802 19.9706 73.7427 18.9854 73.7427 17.5378V8.00755H71.1088V9.09327H71.0686C70.4453 8.22871 69.5003 7.72607 68.2135 7.72607C65.5998 7.72607 63.75 9.69645 63.75 12.7727C63.75 15.8891 66.0019 17.6986 68.294 17.6986C69.6009 17.6986 70.385 17.1759 70.9882 16.4923H71.0485V17.6182C71.0485 19.0256 70.3046 19.7695 68.7564 19.7695C67.4897 19.7695 66.9067 19.2669 66.6855 18.6235H63.9712C64.2527 20.6341 65.9818 21.8405 68.7966 21.8405ZM68.7564 15.5071C67.349 15.5071 66.4241 14.4817 66.4241 12.7325C66.4241 11.0034 67.349 9.91761 68.7363 9.91761C70.385 9.91761 71.1892 11.2044 71.1892 12.7124C71.1892 14.2404 70.4855 15.5071 68.7564 15.5071Z" fill="white"/>
<path d="M80.3962 18.6237C83.593 18.6237 85.7846 16.2512 85.7846 13.175C85.7846 10.0988 83.593 7.72632 80.3962 7.72632C77.1994 7.72632 75.0078 10.0988 75.0078 13.175C75.0078 16.2512 77.1994 18.6237 80.3962 18.6237ZM80.3962 16.5327C78.7073 16.5327 77.7824 15.1856 77.7824 13.175C77.7824 11.1644 78.7073 9.79723 80.3962 9.79723C82.065 9.79723 83.01 11.1644 83.01 13.175C83.01 15.1856 82.065 16.5327 80.3962 16.5327Z" fill="white"/>
<path d="M88.1797 14.3812H100.002V12.0288H88.1797V14.3812Z" fill="white"/>
<path d="M100.867 23.9218C100.867 23.4591 101.242 23.084 101.705 23.084H103.38C103.843 23.084 104.218 23.4591 104.218 23.9218C104.218 24.3844 103.843 24.7595 103.38 24.7595H101.705C101.242 24.7595 100.867 24.3844 100.867 23.9218Z" fill="white"/>
<path fill-rule="evenodd" clip-rule="evenodd" d="M20.5234 0.75C31.5691 0.75 40.5234 9.7043 40.5234 20.75C40.5234 31.7957 31.5691 40.75 20.5234 40.75C9.47774 40.75 0.523438 31.7957 0.523438 20.75C0.523438 9.7043 9.47774 0.75 20.5234 0.75ZM19.8005 2.24659C17.5189 2.56769 15.3463 4.40108 13.6598 7.4674C13.1706 8.35683 12.7292 9.33946 12.3445 10.4004C14.6377 9.82417 17.1568 9.48442 19.8005 9.43187V2.24659ZM10.6542 10.8808C11.1325 9.37958 11.7177 7.9984 12.393 6.77065C13.229 5.25059 14.2212 3.93795 15.3391 2.92977C9.26023 4.69523 4.46866 9.48679 2.70321 15.5657C3.71138 14.4478 5.02403 13.4556 6.54409 12.6196C7.77184 11.9443 9.15301 11.3591 10.6542 10.8808ZM10.1738 12.5711C9.5976 14.8643 9.25786 17.3834 9.20531 20.0271H2.02002C2.34113 17.7454 4.17452 15.5728 7.24084 13.8864C8.13027 13.3972 9.1129 12.9558 10.1738 12.5711ZM10.6514 20.0271C10.7111 17.142 11.1264 14.4334 11.8136 12.0402C14.2068 11.353 16.9155 10.9376 19.8005 10.8779V14.0008C18.7242 16.7562 16.529 18.9512 13.7735 20.0271H10.6514ZM9.20531 21.4729H2.02002C2.34113 23.7546 4.17452 25.9271 7.24084 27.6136C8.13027 28.1028 9.1129 28.5442 10.1738 28.9289C9.5976 26.6357 9.25786 24.1166 9.20531 21.4729ZM11.8136 29.4598C11.1264 27.0666 10.7111 24.358 10.6514 21.4729H13.7735C16.529 22.5488 18.7243 24.7438 19.8005 27.4992V30.6221C16.9155 30.5624 14.2068 30.147 11.8136 29.4598ZM10.6542 30.6192C9.15301 30.1409 7.77184 29.5557 6.54409 28.8804C5.02403 28.0444 3.71138 27.0522 2.70321 25.9343C4.46866 32.0132 9.26023 36.8048 15.3391 38.5702C14.2212 37.562 13.229 36.2494 12.393 34.7293C11.7177 33.5016 11.1325 32.1204 10.6542 30.6192ZM19.8005 39.2534C17.5189 38.9323 15.3463 37.0989 13.6598 34.0326C13.1706 33.1432 12.7292 32.1605 12.3445 31.0996C14.6377 31.6758 17.1568 32.0156 19.8005 32.0681V39.2534ZM25.7077 38.5702C26.8256 37.562 27.8178 36.2494 28.6539 34.7293C29.3291 33.5016 29.9143 32.1204 30.3926 30.6192C31.8938 30.1409 33.275 29.5557 34.5028 28.8804C36.0228 28.0444 37.3355 27.0522 38.3436 25.9343C36.5782 32.0132 31.7866 36.8048 25.7077 38.5702ZM28.7023 31.0996C28.3176 32.1605 27.8762 33.1432 27.387 34.0326C25.7006 37.0989 23.528 38.9323 21.2463 39.2534V32.0681C23.89 32.0156 26.4091 31.6758 28.7023 31.0996ZM30.873 28.9289C31.9339 28.5442 32.9166 28.1028 33.806 27.6136C36.8723 25.9271 38.7057 23.7546 39.0268 21.4729H31.8415C31.789 24.1166 31.4492 26.6357 30.873 28.9289ZM30.3955 21.4729C30.3358 24.358 29.9204 27.0666 29.2332 29.4598C26.84 30.147 24.1314 30.5624 21.2463 30.6221V27.5015C22.3222 24.7451 24.5179 22.5491 27.2742 21.4729H30.3955ZM31.8415 20.0271H39.0268C38.7057 17.7454 36.8723 15.5728 33.806 13.8864C32.9166 13.3972 31.9339 12.9558 30.873 12.5711C31.4492 14.8643 31.789 17.3834 31.8415 20.0271ZM29.2332 12.0402C29.9204 14.4334 30.3358 17.142 30.3955 20.0271H27.2742C24.5179 18.9509 22.3222 16.7549 21.2463 13.9985V10.8779C24.1314 10.9376 26.84 11.353 29.2332 12.0402ZM30.3926 10.8808C31.8938 11.3591 33.275 11.9443 34.5028 12.6196C36.0228 13.4556 37.3355 14.4478 38.3436 15.5657C36.5782 9.48679 31.7866 4.69523 25.7077 2.92977C26.8256 3.93795 27.8178 5.25059 28.6539 6.77065C29.3291 7.9984 29.9143 9.37958 30.3926 10.8808ZM21.2463 2.24659C23.528 2.56769 25.7006 4.40108 27.387 7.4674C27.8762 8.35684 28.3176 9.33946 28.7023 10.4004C26.4091 9.82417 23.89 9.48442 21.2463 9.43187V2.24659Z" fill="white"/>
</g>
<defs>
<clipPath id="clip0_129_268">
<rect width="105" height="40" fill="white" transform="translate(0 0.75)"/>
</clipPath>
</defs>
</svg>
