<svg width="105" height="41" viewBox="0 0 105 41" fill="none" xmlns="http://www.w3.org/2000/svg">
<g clip-path="url(#clip0_391_20736)">
<path d="M48.1406 35.6569H50.875V25.3426H48.1406V35.6569ZM48.1406 23.7341H50.875V21.2812H48.1406V23.7341Z" fill="#080C1D"/>
<path d="M52.6328 39.0361H55.3672V34.4922H55.4075C55.9905 35.3768 56.9355 35.9599 58.3831 35.9599C61.0371 35.9599 62.8466 33.8488 62.8466 30.5112C62.8466 27.2942 61.0974 25.0625 58.363 25.0625C56.9556 25.0625 55.9905 25.726 55.327 26.6307H55.2667V25.344H52.6328V39.0361ZM57.8001 33.6879C56.1715 33.6879 55.3069 32.4615 55.3069 30.5916C55.3069 28.7419 55.9905 27.2741 57.6995 27.2741C59.3884 27.2741 60.072 28.6413 60.072 30.5916C60.072 32.5419 59.1874 33.6879 57.8001 33.6879Z" fill="#080C1D"/>
<path d="M68.3021 35.9599C70.8756 35.9599 72.6449 34.7133 72.6449 32.6424C72.6449 30.2297 70.7349 29.7472 69.0058 29.3853C67.538 29.0837 66.1708 29.0032 66.1708 28.1186C66.1708 27.3747 66.8745 26.9725 67.9402 26.9725C69.1063 26.9725 69.81 27.3747 69.9306 28.4805H72.4037C72.2026 26.4096 70.6947 25.0625 67.9804 25.0625C65.628 25.0625 63.7782 26.1281 63.7782 28.3598C63.7782 30.6117 65.5878 31.1144 67.4375 31.4763C68.8449 31.7577 70.1518 31.8583 70.1518 32.8435C70.1518 33.5673 69.4682 34.0297 68.2618 34.0297C67.0354 34.0297 66.1909 33.507 66.01 32.3207H63.4766C63.6375 34.5123 65.3063 35.9599 68.3021 35.9599Z" fill="#080C1D"/>
<path d="M83.0255 35.658V25.3438H80.2911V31.295C80.2911 32.6622 79.507 33.6274 78.2202 33.6274C77.0541 33.6274 76.5112 32.9639 76.5112 31.7575V25.3438H73.7969V32.2199C73.7969 34.4718 75.0837 35.9396 77.3758 35.9396C78.8234 35.9396 79.6276 35.3967 80.3314 34.4517H80.3917V35.658H83.0255Z" fill="#080C1D"/>
<path d="M84.7969 35.6583H87.5314V29.6667C87.5314 28.2995 88.2753 27.4149 89.3811 27.4149C90.3864 27.4149 90.9695 28.018 90.9695 29.1842V35.6583H93.7039V29.6667C93.7039 28.2995 94.4076 27.4149 95.5536 27.4149C96.5589 27.4149 97.142 28.018 97.142 29.1842V35.6583H99.8764V28.7218C99.8764 26.4699 98.6499 25.0625 96.4785 25.0625C95.1716 25.0625 94.0859 25.7461 93.3822 26.872H93.342C92.8393 25.7863 91.7938 25.0625 90.4869 25.0625C89.0594 25.0625 88.0541 25.7863 87.4911 26.7313H87.4308V25.344H84.7969V35.6583Z" fill="#080C1D"/>
<path d="M48.1719 17.9929H50.9063V3.61719H48.1719V17.9929Z" fill="#080C1D"/>
<path d="M57.5993 18.2939C60.7962 18.2939 62.9877 15.9214 62.9877 12.8452C62.9877 9.76897 60.7962 7.39648 57.5993 7.39648C54.4025 7.39648 52.2109 9.76897 52.2109 12.8452C52.2109 15.9214 54.4025 18.2939 57.5993 18.2939ZM57.5993 16.2029C55.9104 16.2029 54.9856 14.8558 54.9856 12.8452C54.9856 10.8346 55.9104 9.46739 57.5993 9.46739C59.2681 9.46739 60.2131 10.8346 60.2131 12.8452C60.2131 14.8558 59.2681 16.2029 57.5993 16.2029Z" fill="#080C1D"/>
<path d="M68.7966 21.5109C70.3247 21.5109 71.6517 21.149 72.5162 20.3447C73.2802 19.641 73.7427 18.6558 73.7427 17.2082V7.67796H71.1088V8.76368H71.0686C70.4453 7.89912 69.5003 7.39648 68.2135 7.39648C65.5998 7.39648 63.75 9.36686 63.75 12.4431C63.75 15.5595 66.0019 17.369 68.294 17.369C69.6009 17.369 70.385 16.8463 70.9882 16.1627H71.0485V17.2886C71.0485 18.696 70.3046 19.4399 68.7564 19.4399C67.4897 19.4399 66.9067 18.9373 66.6855 18.2939H63.9712C64.2527 20.3045 65.9818 21.5109 68.7966 21.5109ZM68.7564 15.1775C67.349 15.1775 66.4241 14.1521 66.4241 12.4029C66.4241 10.6738 67.349 9.58802 68.7363 9.58802C70.385 9.58802 71.1892 10.8748 71.1892 12.3828C71.1892 13.9108 70.4855 15.1775 68.7564 15.1775Z" fill="#080C1D"/>
<path d="M80.3962 18.2939C83.593 18.2939 85.7846 15.9214 85.7846 12.8452C85.7846 9.76897 83.593 7.39648 80.3962 7.39648C77.1994 7.39648 75.0078 9.76897 75.0078 12.8452C75.0078 15.9214 77.1994 18.2939 80.3962 18.2939ZM80.3962 16.2029C78.7073 16.2029 77.7824 14.8558 77.7824 12.8452C77.7824 10.8346 78.7073 9.46739 80.3962 9.46739C82.065 9.46739 83.01 10.8346 83.01 12.8452C83.01 14.8558 82.065 16.2029 80.3962 16.2029Z" fill="#080C1D"/>
<path d="M88.1797 14.0516H100.002V11.6992H88.1797V14.0516Z" fill="#080C1D"/>
<path d="M100.867 23.5917C100.867 23.129 101.242 22.7539 101.705 22.7539H103.38C103.843 22.7539 104.218 23.129 104.218 23.5917C104.218 24.0543 103.843 24.4294 103.38 24.4294H101.705C101.242 24.4294 100.867 24.0543 100.867 23.5917Z" fill="#080C1D"/>
<path fill-rule="evenodd" clip-rule="evenodd" d="M20.5234 0.419922C31.5691 0.419922 40.5234 9.37422 40.5234 20.4199C40.5234 31.4656 31.5691 40.4199 20.5234 40.4199C9.47774 40.4199 0.523438 31.4656 0.523438 20.4199C0.523438 9.37422 9.47774 0.419922 20.5234 0.419922ZM19.8005 1.91651C17.5189 2.23761 15.3463 4.071 13.6598 7.13732C13.1706 8.02675 12.7292 9.00938 12.3445 10.0704C14.6377 9.49409 17.1568 9.15434 19.8005 9.10179V1.91651ZM10.6542 10.5507C11.1325 9.0495 11.7177 7.66832 12.393 6.44057C13.229 4.92051 14.2212 3.60787 15.3391 2.59969C9.26023 4.36515 4.46866 9.15671 2.70321 15.2356C3.71138 14.1177 5.02403 13.1255 6.54409 12.2895C7.77184 11.6142 9.15301 11.029 10.6542 10.5507ZM10.1738 12.241C9.5976 14.5342 9.25786 17.0533 9.20531 19.697H2.02002C2.34113 17.4153 4.17452 15.2427 7.24084 13.5563C8.13027 13.0671 9.1129 12.6257 10.1738 12.241ZM10.6514 19.697C10.7111 16.8119 11.1264 14.1033 11.8136 11.7101C14.2068 11.0229 16.9155 10.6075 19.8005 10.5478V13.6707C18.7242 16.4261 16.529 18.6211 13.7735 19.697H10.6514ZM9.20531 21.1428H2.02002C2.34113 23.4245 4.17452 25.597 7.24084 27.2835C8.13027 27.7727 9.1129 28.2141 10.1738 28.5988C9.5976 26.3056 9.25786 23.7865 9.20531 21.1428ZM11.8136 29.1297C11.1264 26.7365 10.7111 24.0279 10.6514 21.1428H13.7735C16.529 22.2187 18.7243 24.4137 19.8005 27.1691V30.292C16.9155 30.2323 14.2068 29.8169 11.8136 29.1297ZM10.6542 30.2891C9.15301 29.8108 7.77184 29.2256 6.54409 28.5503C5.02403 27.7143 3.71138 26.7221 2.70321 25.6042C4.46866 31.6831 9.26023 36.4747 15.3391 38.2401C14.2212 37.2319 13.229 35.9193 12.393 34.3992C11.7177 33.1715 11.1325 31.7903 10.6542 30.2891ZM19.8005 38.9233C17.5189 38.6022 15.3463 36.7688 13.6598 33.7025C13.1706 32.8131 12.7292 31.8304 12.3445 30.7695C14.6377 31.3457 17.1568 31.6855 19.8005 31.738V38.9233ZM25.7077 38.2401C26.8256 37.2319 27.8178 35.9193 28.6539 34.3992C29.3291 33.1715 29.9143 31.7903 30.3926 30.2891C31.8938 29.8108 33.275 29.2256 34.5028 28.5503C36.0228 27.7143 37.3355 26.7221 38.3436 25.6042C36.5782 31.6831 31.7866 36.4747 25.7077 38.2401ZM28.7023 30.7695C28.3176 31.8304 27.8762 32.8131 27.387 33.7025C25.7006 36.7688 23.528 38.6022 21.2463 38.9233V31.738C23.89 31.6855 26.4091 31.3457 28.7023 30.7695ZM30.873 28.5988C31.9339 28.2141 32.9166 27.7727 33.806 27.2835C36.8723 25.597 38.7057 23.4245 39.0268 21.1428H31.8415C31.789 23.7865 31.4492 26.3056 30.873 28.5988ZM30.3955 21.1428C30.3358 24.0279 29.9204 26.7365 29.2332 29.1297C26.84 29.8169 24.1314 30.2323 21.2463 30.292V27.1714C22.3222 24.415 24.5179 22.219 27.2742 21.1428H30.3955ZM31.8415 19.697H39.0268C38.7057 17.4153 36.8723 15.2427 33.806 13.5563C32.9166 13.0671 31.9339 12.6257 30.873 12.241C31.4492 14.5342 31.789 17.0533 31.8415 19.697ZM29.2332 11.7101C29.9204 14.1033 30.3358 16.8119 30.3955 19.697H27.2742C24.5179 18.6208 22.3222 16.4248 21.2463 13.6684V10.5478C24.1314 10.6075 26.84 11.0229 29.2332 11.7101ZM30.3926 10.5507C31.8938 11.029 33.275 11.6142 34.5028 12.2895C36.0228 13.1255 37.3355 14.1177 38.3436 15.2356C36.5782 9.15671 31.7866 4.36515 25.7077 2.59969C26.8256 3.60787 27.8178 4.92051 28.6539 6.44057C29.3291 7.66832 29.9143 9.0495 30.3926 10.5507ZM21.2463 1.91651C23.528 2.23761 25.7006 4.071 27.387 7.13732C27.8762 8.02676 28.3176 9.00938 28.7023 10.0704C26.4091 9.49409 23.89 9.15434 21.2463 9.10179V1.91651Z" fill="#080C1D"/>
</g>
<defs>
<clipPath id="clip0_391_20736">
<rect width="105" height="40" fill="white" transform="translate(0 0.419922)"/>
</clipPath>
</defs>
</svg>
