<svg width="244" height="85" viewBox="0 0 244 85" fill="none" xmlns="http://www.w3.org/2000/svg">
<path opacity="0.1" fill-rule="evenodd" clip-rule="evenodd" d="M115.974 82.7196C116.596 81.9722 117.201 81.2457 117.866 80.5813C119.367 79.2493 120.855 77.9056 122.342 76.5634C126.098 73.1738 129.843 69.7939 133.738 66.6403C153.431 51.2318 173.125 35.8233 192.671 20.4148L230.588 -9.52173C231.176 -9.96198 231.764 -10.4022 232.205 -10.8425C233.233 -11.7229 234.409 -12.3099 235.732 -11.1359C236.907 -10.1087 236.614 -8.64124 235.879 -7.61401C234.997 -6.14653 233.821 -4.67905 232.645 -3.50507C231.935 -2.86026 231.225 -2.21223 230.513 -1.56345C226.369 2.2172 222.192 6.02706 217.802 9.40871C186.058 33.7688 154.166 57.9822 121.099 80.5813C119.336 81.902 117.425 83.076 115.514 84.25C115.514 84.25 115.367 84.1032 114.927 83.9565C115.29 83.542 115.635 83.1276 115.974 82.7196ZM2.80957e-06 52.1123C0.514377 51.8188 1.02875 51.4886 1.54312 51.1584C2.0575 50.8282 2.57189 50.498 3.08626 50.2045C24.5431 37.5842 45.7061 24.5237 66.4282 10.5827C98.1724 -10.549 129.623 -32.2676 159.604 -55.7472C165.188 -60.1497 170.626 -64.5521 176.064 -68.9545C176.946 -69.6883 177.68 -70.2752 178.562 -70.8622C179.738 -71.7427 180.914 -72.183 182.089 -71.1557C183.265 -70.1285 182.971 -68.661 182.236 -67.6338C181.355 -66.1663 180.326 -64.6988 179.003 -63.5248L178.827 -63.3634C175.207 -60.0374 171.445 -56.5809 167.54 -53.6928C122.863 -19.9408 77.0096 11.6099 28.0703 38.7582C22.4856 41.8888 16.7702 44.7586 11.0547 47.6282C8.1977 49.0631 5.33924 50.498 2.4984 51.9655C1.76357 52.259 1.02875 52.5525 0.44089 52.846C0.293918 52.6992 0.14696 52.4057 2.80957e-06 52.1123ZM97.1438 71.7764C96.1151 72.5102 95.2333 73.3907 94.3515 74.2711C94.4985 74.4179 94.6454 74.5646 95.0863 74.7114C96.1151 73.9777 97.1438 73.2072 98.1726 72.4368C99.2013 71.6664 100.23 70.896 101.259 70.1622C107.188 65.8936 113.121 61.625 119.057 57.3548C147.401 36.9628 175.795 16.5354 203.987 -4.09207C211.916 -9.82138 219.4 -15.9945 226.913 -22.1913C229.984 -24.724 233.06 -27.2609 236.173 -29.7729C238.377 -31.5339 240.288 -33.5883 242.198 -35.6428C242.933 -36.3765 243.668 -37.257 243.962 -38.2843C244.109 -39.018 243.815 -40.0452 243.374 -40.4855C242.933 -40.9257 241.757 -41.0725 241.169 -40.779C239.994 -40.192 238.965 -39.4582 237.936 -38.5778C234.384 -35.6657 230.869 -32.7155 227.359 -29.7684C221.139 -24.5472 214.931 -19.3359 208.543 -14.3644C192.952 -2.26535 177.312 9.68739 161.68 21.6343L161.679 21.6351C150.198 30.4087 138.721 39.1801 127.272 48.0033C117.132 55.927 107.139 63.8505 97.1467 71.774L97.1438 71.7764ZM96.409 51.9655C98.0257 50.498 99.6424 49.0306 101.406 47.7098C106.3 43.9163 111.203 40.1225 116.108 36.3271L116.119 36.3187C132.271 23.8201 148.449 11.3012 164.454 -1.30386C173.927 -8.7764 183.277 -16.3707 192.585 -23.9299C197.717 -28.0982 202.836 -32.256 207.956 -36.3765C209.131 -37.4036 210.307 -38.431 211.63 -39.1647C212.364 -39.605 213.981 -39.605 214.422 -39.1647C215.01 -38.5778 215.157 -37.1103 214.716 -36.3765C214.128 -35.2026 213.246 -34.0286 212.218 -33.0013C211.205 -32.0748 210.205 -31.1362 209.203 -30.196C206.714 -27.8599 204.214 -25.5133 201.489 -23.316C172.096 -0.129881 142.409 22.616 111.4 43.6009C108.027 45.8862 104.456 48.1716 101.012 50.3762C100.254 50.8611 99.5025 51.3424 98.7606 51.8188C98.1727 52.1123 97.5849 52.4058 96.9969 52.846C96.8852 52.6778 96.794 52.5525 96.7161 52.4455C96.5912 52.2724 96.5001 52.1469 96.409 51.9655ZM86.2243 32.2365C85.951 32.5486 85.6717 32.8653 85.3866 33.1818C85.8275 33.4753 85.9745 33.6221 85.9745 33.6221C88.179 32.0078 90.3834 30.3936 92.5879 28.9261C117.131 12.6372 140.792 -4.82581 164.16 -22.5823C171.067 -27.7183 177.827 -33.0012 184.588 -38.284C185.91 -39.3112 187.086 -40.4855 188.115 -41.6595C188.997 -42.6867 189.438 -44.0074 188.409 -45.1814C187.38 -46.5021 186.057 -46.3554 184.882 -45.6216C183.265 -44.7412 181.649 -43.7139 180.179 -42.54C177.607 -40.4855 175.072 -38.3943 172.537 -36.3032C170.002 -34.212 167.466 -32.1209 164.895 -30.0664C147.112 -16.1254 129.182 -2.18435 111.252 11.6099L89.2077 29.2196C88.1701 30.0253 87.2237 31.1017 86.2243 32.2365Z" fill="#AAAAAA"/>
</svg>
