<svg width="180" height="180" viewBox="0 0 180 180" fill="none" xmlns="http://www.w3.org/2000/svg">
<path d="M90.0234 8.97422V17.9411H98.9844V26.9321H107.975V35.8869H116.954V0.0134277H99.062V8.97422H90.0234Z" fill="white"/>
<path d="M35.9908 116.984C41.9289 116.984 56.9122 116.984 62.9458 116.984C62.9458 135.014 62.9458 152.963 62.9458 171.028C69.0024 171.028 74.9482 171.028 80.9753 171.028C80.9753 174.063 80.9753 176.984 80.9753 179.978C93.0041 179.978 104.951 179.978 117.068 179.978C117.068 176.992 117.068 174.013 117.067 171.035C120.017 171.035 122.967 171.035 125.998 171.035C125.998 174.06 125.998 176.982 125.998 179.977C132.024 179.977 137.969 179.977 143.975 179.977C143.975 174.046 143.975 168.124 143.975 162.085C141.046 162.085 138.1 162.085 135.093 162.085C135.093 156.046 135.093 150.124 135.093 144.117C138.008 144.117 140.952 144.117 144.017 144.117C144.017 147.042 144.017 149.988 144.017 152.984C147.056 152.984 149.976 152.984 153.058 152.984C153.058 143.998 153.058 135.019 153.058 126.04C162.011 126.04 170.964 126.04 179.987 126.04C179.987 114.013 179.987 102.068 179.987 89.9538C176.995 89.9538 174.017 89.9538 171.039 89.9548C171.039 87.0052 171.039 84.0554 171.039 81.0235C174.066 81.0235 176.987 81.0235 179.982 81.0235C179.982 74.9953 179.982 69.0505 179.982 63.0261C159.04 63.0261 138.112 63.0261 117.066 63.0261C117.066 57.0032 117.066 51.0573 117.066 44.9945C111.005 44.9945 105.059 44.9945 99.031 44.9945C99.031 41.9571 99.031 39.036 99.031 35.9885C95.9739 35.9885 92.9973 35.9885 90.0209 35.9885C90.0209 38.9401 90.0209 41.8918 90.0209 44.9099C83.9892 44.9099 78.0455 44.9099 72.0205 44.9099C72.0205 38.9618 71.9371 6.03497 71.9371 0.0358887C69.016 0.0358887 66.0753 0.0358887 63.0616 0.0358887C63.0616 5.94915 63.001 50.9372 63.001 62.9613C56.9713 62.9613 51.0505 62.9613 45.0171 62.9613C45.0171 68.9835 45.0171 74.9281 45.0171 80.9352C41.9608 80.9352 39.0175 80.9352 35.9904 80.9352C35.9904 77.9742 35.9904 75.0543 35.9904 72.0068C32.9331 72.0068 29.9567 72.0068 26.9804 72.0068C26.9804 74.9816 26.9804 77.9565 26.9804 81.0107C23.879 81.0107 20.9276 81.0107 17.9766 81.0107C17.9766 83.9603 17.9766 86.9101 17.9766 89.9664C23.9625 89.9664 29.9017 89.9664 35.9908 89.9664C35.9908 93.0447 35.9908 96.0182 35.9908 98.9913C41.9442 98.9913 47.8975 98.9913 53.9175 98.9913C53.9175 102.02 53.9175 104.964 53.9175 107.991C50.9663 107.991 38.955 107.991 35.9622 107.991C35.9622 111.016 35.9908 113.959 35.9908 116.984ZM116.961 89.934C113.959 89.934 111.018 89.934 108.092 89.934C108.092 86.9229 108.092 83.9826 108.092 81.0476C111.088 81.0476 114.005 81.0476 116.961 81.0476C116.961 84.0407 116.961 86.9807 116.961 89.934ZM162.031 72.0637C162.031 78.0865 162.031 84.0349 162.031 89.9834H153.053C153.053 84.0125 153.053 78.0414 153.053 72.0637C156.108 72.0637 159.05 72.0637 162.031 72.0637ZM162.102 108.056C165.075 108.056 167.992 108.056 170.98 108.056C170.98 111.082 170.98 114.022 170.98 116.935C167.965 116.935 165.025 116.935 162.102 116.935C162.102 113.935 162.102 111.018 162.102 108.056ZM144.104 117.093C147.113 117.093 150.051 117.093 153.029 117.093C153.029 120.117 153.029 123.065 153.029 126.012C150.058 126.012 147.087 126.012 144.104 126.012C144.104 122.962 144.104 120.023 144.104 117.093ZM135.071 80.9776C131.977 80.9776 129.033 80.9776 126.105 80.9776C126.105 77.9176 126.105 74.9746 126.105 72.0466C132.105 72.0466 138.024 72.0466 144.057 72.0466C144.057 78.0343 144.057 83.9661 144.057 89.9836H144.001V99.0265H153.025C153.025 101.996 153.025 104.967 153.025 107.935C149.967 107.935 147.024 107.935 144.001 107.935C144.001 104.936 144.001 102.016 144.001 99.0265C140.97 99.0265 138.021 99.0265 135.071 99.0265C135.071 93.0479 135.071 87.0704 135.071 80.9776ZM107.992 170.981H108.061V152.985C108.061 149.948 108.061 147.028 108.061 144.043C111.094 144.043 114.044 144.043 116.995 144.043C116.995 147.017 116.995 149.991 116.995 153.076C120.092 153.076 123.035 153.076 125.977 153.076C125.977 156.107 125.977 159.024 125.977 162.054C122.987 162.054 120.044 162.054 117.038 162.054C117.038 165.114 117.038 168.062 117.038 171.01C114.06 171.011 111.083 171.011 107.992 171.011C107.992 171.001 107.992 170.991 107.992 170.981ZM117.025 144.014C117.025 141.043 117.025 138.071 117.025 135.097C120.088 135.097 123.027 135.097 125.949 135.097C125.949 138.109 125.949 141.048 125.949 144.014C122.922 144.014 119.973 144.014 117.025 144.014ZM90.0576 108.08C93.0581 108.08 96.0022 108.08 99.0282 108.08C99.0282 111.07 99.0282 113.991 99.0282 116.951C105.056 116.951 111.001 116.951 116.936 116.951C116.936 113.941 116.936 110.997 116.936 107.97C113.933 107.97 111.012 107.97 108.092 107.97C108.092 104.941 108.092 101.997 108.092 99.0055C108.57 99.0055 108.968 99.0055 109.366 99.0055C117.169 99.0055 124.973 99.0041 132.776 99.0076C133.533 99.0081 134.29 99.0384 135.046 99.0543C135.046 102.028 135.046 105.002 135.046 108.055C131.947 108.055 129.026 108.055 126.104 108.055C126.104 111.081 126.104 114.025 126.104 117.049C129.102 117.049 132.023 117.049 134.961 117.049C134.961 120.075 134.961 123.019 134.961 126.043C122.964 126.043 111.039 126.043 98.9986 126.043C98.9986 132.069 98.9986 138.015 98.9986 143.957C95.9369 143.957 92.9927 143.957 90.0576 143.957C90.0576 131.953 90.0576 120.029 90.0576 108.08ZM90.0492 90.0736C93.0724 90.0736 96.0127 90.0736 98.9287 90.0736C98.9287 93.0884 98.9287 96.0285 98.9287 98.9528C95.929 98.9528 93.0125 98.9528 90.0492 98.9528C90.0492 95.9798 90.0492 93.0633 90.0492 90.0736ZM90.0212 54.0463C93.0621 54.0463 96.001 54.0463 98.9375 54.0463C98.9375 57.0529 98.9375 59.9918 98.9375 62.981C95.9166 62.981 92.9687 62.981 90.0212 62.981C90.0212 60.0086 90.0212 57.0362 90.0212 54.0463ZM80.9877 63.018C83.9897 63.0152 86.9919 63.0124 89.9935 63.0089C89.9916 65.9972 89.9897 68.9855 89.9879 71.974C87.622 71.9833 85.256 71.9928 82.8899 72.0022H81.0375C81.0208 69.0076 81.0044 66.0128 80.9877 63.018ZM72.0481 98.9265C72.0481 95.9261 72.0481 93.0097 72.0481 90.047C75.0207 90.047 77.9371 90.047 80.9263 90.047C80.9263 93.071 80.9263 96.0108 80.9263 98.9265C77.9108 98.9265 74.9706 98.9265 72.0481 98.9265ZM80.9264 108.057C80.9264 111.082 80.9264 114.022 80.9264 116.937C77.911 116.937 74.9706 116.937 72.0481 116.937C72.0481 113.937 72.0481 111.02 72.0481 108.057C75.0211 108.057 77.9376 108.057 80.9264 108.057ZM80.9597 62.9924C77.9849 62.9924 75.0098 62.9924 72.0518 62.9924C72.0518 59.9039 72.0518 56.9835 72.0518 54.0541C75.0571 54.0541 78.0011 54.0541 80.9583 54.0541C80.9583 57.0839 80.9583 60.0388 80.9597 62.9924ZM80.955 143.96C77.9301 143.96 74.9883 143.96 72.0732 143.96C72.0732 137.944 72.0732 132.003 72.0732 126.079C75.0736 126.079 77.9919 126.079 80.955 126.079C80.955 132.053 80.955 137.969 80.955 143.96ZM72.0467 153.085C75.0179 153.085 77.9341 153.085 80.9277 153.085C80.9277 156.106 80.9277 159.046 80.9277 161.964C77.9134 161.964 74.9734 161.964 72.0467 161.964C72.0467 158.965 72.0467 156.049 72.0467 153.085ZM54.0267 72.0635C57.0504 72.0635 59.9924 72.0635 62.9085 72.0635C62.9085 78.0791 62.9085 84.0199 62.9085 89.947C59.9085 89.947 56.9902 89.947 54.0267 89.947C54.0267 83.9731 54.0267 78.056 54.0267 72.0635Z" fill="white"/>
<path d="M17.9747 81.0108C17.9649 81.0108 17.9551 81.0108 17.9453 81.0108C17.9453 81.0017 17.9453 80.9927 17.9453 80.9836C17.9551 80.9836 17.9649 80.9836 17.9747 80.9836C17.9747 80.9927 17.9747 81.0017 17.9747 81.0108Z" fill="white"/>
<path d="M0.0078125 53.8985C17.9415 53.8985 35.8895 53.8985 53.91 53.8985C53.91 35.9731 53.91 18.0256 53.91 -0.0012207C35.9116 -0.0012207 17.9874 -0.0012207 0.0078125 -0.0012207C0.0078125 17.9701 0.0078125 35.8939 0.0078125 53.8985ZM8.97824 9.01509C21.0071 9.01509 32.9523 9.01509 44.9088 9.01509C44.9088 21.0225 44.9088 32.9673 44.9088 44.8977C32.8917 44.8977 20.9465 44.8977 8.97824 44.8977C8.97824 32.9202 8.97824 21.0225 8.97824 9.01509Z" fill="white"/>
<path d="M-0.00390625 126.1C-0.00390625 144.088 -0.00390625 162.012 -0.00390625 179.994C17.965 179.994 35.889 179.994 53.8973 179.994C53.8973 162.07 53.8973 144.122 53.8973 126.1C35.9804 126.1 18.0326 126.1 -0.00390625 126.1ZM9.03517 135.082C21.0386 135.082 32.9604 135.082 44.9305 135.082C44.9305 147.058 44.9305 158.98 44.9305 170.978C32.9052 170.978 20.9599 170.978 9.03517 170.978C9.03517 158.959 9.03517 147.014 9.03517 135.082Z" fill="white"/>
<path d="M126.07 53.9216C144.039 53.9216 161.963 53.9216 179.972 53.9216C179.972 35.9968 179.972 18.0494 179.972 0.0263672C162.053 0.0263672 144.105 0.0263672 126.07 0.0263672C126.07 18.0166 126.07 35.9405 126.07 53.9216ZM135.103 9.03654C147.124 9.03654 159.069 9.03654 170.996 9.03654C170.996 21.0422 170.996 32.9639 170.996 44.931C159.017 44.931 147.096 44.931 135.103 44.931C135.103 32.8991 135.103 20.9543 135.103 9.03654Z" fill="white"/>
<path d="M90.0221 8.94458V8.97435H89.9922L90.0221 8.94458Z" fill="white"/>
<path d="M26.9531 71.978C26.9621 71.978 26.9712 71.978 26.9803 71.978C26.9803 71.9877 26.9803 71.9975 26.9803 72.0071C26.9712 72.0071 26.9621 72.0071 26.9531 72.0071C26.9531 71.9976 26.9531 71.9878 26.9531 71.978Z" fill="white"/>
<path d="M17.9486 80.9832C14.9718 80.9832 11.9949 80.9832 8.93685 80.9832C8.93685 77.9313 8.93685 75.0101 8.93685 71.9718C5.90999 71.9718 2.96422 71.9718 0.00390625 71.9718C0.00390625 68.9322 0.00390625 66.0122 0.00390625 63.054C9.00078 63.054 17.9475 63.054 26.9549 63.054C26.9549 66.0721 26.9549 69.0248 26.9549 71.9774C24.003 71.9774 21.0508 71.9774 17.9488 71.9774C17.9486 75.0316 17.9486 78.0075 17.9486 80.9832Z" fill="white"/>
<path d="M162.102 135.08C168.071 135.08 173.988 135.08 179.985 135.08C179.985 141.095 179.985 147.035 179.985 152.958C173.974 152.958 168.033 152.958 162.102 152.958C162.102 146.962 162.102 141.045 162.102 135.08Z" fill="white"/>
<path d="M162.095 171.064C165.13 171.064 168.082 171.064 171.035 171.064C171.035 171.055 171.035 171.046 171.035 171.037C171.044 171.037 171.053 171.037 171.063 171.037C171.063 171.046 171.063 171.055 171.063 171.064C171.063 167.33 171.063 163.592 171.063 162.098C174.118 162.098 177.038 162.098 179.989 162.098C179.989 165.094 180.025 179.979 179.989 179.979C177.131 179.979 159.065 180 153.113 180C153.113 174.002 153.113 168.058 153.113 162.132C156.126 162.132 159.07 162.132 162.095 162.132C162.095 165.136 162.095 168.057 162.095 171.064Z" fill="white"/>
<path d="M35.964 108.033C32.9078 108.033 29.9863 108.033 26.9483 108.033C26.9483 111.06 26.9483 114.006 26.9483 116.966C23.9095 116.966 20.9891 116.966 18.0312 116.966C18.0312 110.97 18.0312 105.025 18.0312 99.0198C24.0536 99.0198 30.0089 99.0198 35.964 99.0198C35.964 101.983 35.964 104.947 35.964 107.991C35.964 108.005 35.964 108.019 35.964 108.033Z" fill="white"/>
<path d="M35.9609 99.0197C35.9609 99.0104 35.9609 99.0009 35.9609 98.9915C35.9609 98.9915 35.9681 98.9985 35.9751 99.0055L35.9609 98.9915C35.9704 98.9915 35.9798 98.9915 35.9893 98.9915C35.9893 99.0009 35.9893 99.0104 35.9893 99.0197C35.98 99.0197 35.9704 99.0197 35.9609 99.0197Z" fill="white"/>
<path d="M0.0195312 90.0444C3.00156 90.0444 5.91634 90.0444 8.90467 90.0444C8.90467 93.0718 8.90467 95.9864 8.90467 98.948C5.91616 98.948 2.97774 98.948 0.0195312 98.948C0.0195312 95.95 0.0195312 93.0114 0.0195312 90.0444Z" fill="white"/>
<path d="M0.0078125 108.061C2.97881 108.061 5.89359 108.061 8.87912 108.061C8.87912 111.084 8.87912 114.023 8.87912 116.934C5.86574 116.934 2.92697 116.934 0.0078125 116.934C0.0078125 113.936 0.0078125 111.021 0.0078125 108.061Z" fill="white"/>
<path d="M81.0508 0.0197754C84.0461 0.0197754 86.9891 0.0197754 89.9914 0.0197754C89.9914 3.03928 89.9914 5.99206 89.9914 8.94467C87.0147 8.94467 84.0379 8.94467 81.0508 8.94467C81.0508 5.89259 81.0508 2.97326 81.0508 0.0197754Z" fill="white"/>
<path d="M89.9922 8.94458C90.0016 8.94458 90.0111 8.94458 90.0206 8.94458L89.9922 8.97295C89.9922 8.96349 89.9922 8.95404 89.9922 8.94458Z" fill="white"/>
<path d="M81.0508 18.0367C84.0463 18.0367 86.9895 17.9409 89.9913 17.9409C89.9913 20.9615 89.9913 32.9539 89.9913 35.9601C87.0145 35.9601 84.0377 35.9601 81.0508 35.9601C81.0508 32.9071 81.0508 20.9897 81.0508 18.0367Z" fill="white"/>
<path d="M89.9922 35.96C90.0015 35.96 90.0109 35.96 90.0202 35.96C90.0202 35.96 90.0132 35.9671 90.0062 35.9743L90.0204 35.9601C90.0204 35.9696 90.0204 35.9789 90.0204 35.9883C90.0109 35.9883 90.0015 35.9883 89.9922 35.9883C89.9922 35.9796 89.9922 35.9687 89.9922 35.96Z" fill="white"/>
<path d="M18.0078 18.0369C24.0368 18.0369 29.9772 18.0369 35.8863 18.0369C35.8863 24.0526 35.8863 29.993 35.8863 35.9108C29.8851 35.9108 23.9684 35.9108 18.0078 35.9108C18.0078 29.9366 18.0078 24.02 18.0078 18.0369Z" fill="white"/>
<path d="M18.0391 144.12C24.0546 144.12 29.9952 144.12 35.9141 144.12C35.9141 150.121 35.9141 156.037 35.9141 161.998C29.94 161.998 24.0234 161.998 18.0391 161.998C18.0391 155.97 18.0391 150.03 18.0391 144.12Z" fill="white"/>
<path d="M144.086 18.0208C150.076 18.0208 156.017 18.0208 161.976 18.0208C161.976 24.0197 161.976 29.9599 161.976 35.8924C155.968 35.8924 150.027 35.8924 144.086 35.8924C144.086 29.899 144.086 23.9825 144.086 18.0208Z" fill="white"/>
</svg>
