<svg width="24" height="24" viewBox="0 0 24 24" fill="none" xmlns="http://www.w3.org/2000/svg">
<path fill-rule="evenodd" clip-rule="evenodd" d="M7.125 7.875H10.125C10.539 7.875 10.875 8.211 10.875 8.625C10.875 9.039 10.539 9.375 10.125 9.375H7.125C6.7275 9.375 6.34575 9.21675 6.0645 8.9355C5.78325 8.65425 5.625 8.2725 5.625 7.875V4.875C5.625 4.461 5.961 4.125 6.375 4.125C6.789 4.125 7.125 4.461 7.125 4.875V7.875ZM18.75 18.75C18.75 19.164 18.414 19.5 18 19.5C17.586 19.5 17.25 19.164 17.25 18.75V13.5C17.25 13.086 17.586 12.75 18 12.75C18.414 12.75 18.75 13.086 18.75 13.5V18.75ZM9.75 18.75C9.75 19.164 9.414 19.5 9 19.5C8.586 19.5 8.25 19.164 8.25 18.75V18C8.25 17.586 8.586 17.25 9 17.25C9.414 17.25 9.75 17.586 9.75 18V18.75ZM12.75 18.75C12.75 19.164 12.414 19.5 12 19.5C11.586 19.5 11.25 19.164 11.25 18.75V15.75C11.25 15.336 11.586 15 12 15C12.414 15 12.75 15.336 12.75 15.75V18.75ZM15.75 18.75C15.75 19.164 15.414 19.5 15 19.5C14.586 19.5 14.25 19.164 14.25 18.75V16.5C14.25 16.086 14.586 15.75 15 15.75C15.414 15.75 15.75 16.086 15.75 16.5V18.75Z" fill="#F97968"/>
<path fill-rule="evenodd" clip-rule="evenodd" d="M5.298 13.3695C3.14807 12.861 1.54688 10.9283 1.54688 8.625C1.54688 6.32175 3.14807 4.389 5.298 3.8805V3.75C5.298 2.50725 6.30544 1.5 7.54867 1.5H16.2963C16.9308 1.5 17.5352 1.76775 17.9618 2.2365L21.2178 5.81625C21.594 6.23025 21.8029 6.77025 21.8029 7.32975V20.25C21.8029 20.847 21.5661 21.4193 21.1438 21.8408C20.7216 22.263 20.1492 22.5 19.5523 22.5H7.54867C6.9517 22.5 6.37939 22.263 5.95712 21.8408C5.53485 21.4193 5.298 20.847 5.298 20.25V13.3695ZM5.298 5.442C3.98725 5.90625 3.04732 7.1565 3.04732 8.625C3.04732 10.0935 3.98725 11.3438 5.298 11.808C5.64953 11.9325 6.02894 12 6.42334 12C6.54981 12 6.67519 11.9932 6.79844 11.979C8.48538 11.7922 9.79935 10.3612 9.79935 8.625C9.79935 6.88875 8.48538 5.45775 6.79844 5.271C6.67519 5.25675 6.54981 5.25 6.42334 5.25C6.02894 5.25 5.64953 5.3175 5.298 5.442ZM15.0509 3H7.54867C7.1339 3 6.79844 3.336 6.79844 3.75V3.76425C9.31491 3.95625 11.2998 6.06075 11.2998 8.625C11.2998 11.1892 9.31491 13.2938 6.79844 13.4858V20.25C6.79844 20.4487 6.87776 20.64 7.01815 20.7803C7.15855 20.9213 7.34932 21 7.54867 21H19.5523C19.7516 21 19.9424 20.9213 20.0828 20.7803C20.2232 20.64 20.3025 20.4487 20.3025 20.25V8.25H17.3016C16.0584 8.25 15.0509 7.24275 15.0509 6V3ZM20.0388 6.75L16.8515 3.24525C16.7689 3.15375 16.665 3.0855 16.5514 3.04425V6C16.5514 6.414 16.8868 6.75 17.3016 6.75H20.0388Z" fill="#080C1D"/>
</svg>
