<svg width="125" height="27" viewBox="0 0 125 27" fill="none" xmlns="http://www.w3.org/2000/svg">
<path d="M14.1099 5.20244L15.0976 4.21473C17.0372 2.27513 20.1949 2.22712 22.1457 4.15555C22.8848 4.88789 23.3761 5.83338 23.5503 6.85922C23.7246 7.88507 23.5731 8.93972 23.1171 9.87504C22.8984 10.3218 22.8248 10.8258 22.9063 11.3165C22.988 11.8072 23.2207 12.2601 23.5723 12.6121C24.2187 11.9642 24.7311 11.1952 25.0802 10.3492C25.4293 9.50319 25.6084 8.59668 25.6072 7.68145C25.6058 6.76624 25.4243 5.86023 25.0727 5.01521C24.7212 4.17018 24.2066 3.4027 23.5583 2.7566C20.8305 0.0441856 16.4028 0.0981619 13.6826 2.8182L4.26811 12.2325L3.49415 11.4585C1.52165 9.48602 1.50908 6.26178 3.51637 4.32434C4.25938 3.60939 5.20599 3.14268 6.22555 2.98863C7.24511 2.83457 8.28734 3.00077 9.20843 3.46427C9.62883 3.6797 10.1066 3.75677 10.5734 3.68447C11.0402 3.61216 11.4723 3.39419 11.8078 3.06167L11.8318 3.03779C11.8393 3.03037 11.8452 3.02154 11.8493 3.01182C11.8533 3.0021 11.8554 2.99167 11.8554 2.98114C11.8554 2.97062 11.8533 2.96019 11.8493 2.95047C11.8452 2.94076 11.8393 2.93193 11.8318 2.9245C10.536 1.66127 8.79963 0.951724 6.98999 0.945987C5.18036 0.940252 3.43947 1.63878 2.13571 2.89377C-0.672724 5.60492 -0.662688 10.1133 2.09761 12.8736L11.5094 22.2853L10.5096 23.2851C8.56998 25.2247 5.41216 25.2727 3.46151 23.3443C2.72233 22.612 2.23112 21.6664 2.05686 20.6406C1.88261 19.6148 2.03405 18.5602 2.48993 17.6248C2.70864 17.178 2.78235 16.6741 2.70078 16.1834C2.61919 15.6927 2.38638 15.2397 2.03487 14.8877C1.38846 15.5357 0.876047 16.3046 0.526898 17.1506C0.177748 17.9967 -0.00129036 18.9031 7.00055e-06 19.8184C0.00130437 20.7336 0.182912 21.6396 0.53446 22.4846C0.886006 23.3297 1.4006 24.0972 2.04884 24.7432C4.7765 27.4558 9.20436 27.4019 11.9245 24.6818L21.3513 15.2549L22.1281 16.0318C24.0677 17.9714 24.1157 21.1291 22.1873 23.0797C21.455 23.819 20.5095 24.3102 19.4837 24.4845C18.4579 24.6588 17.4032 24.5073 16.4678 24.0513C16.0209 23.8325 15.5167 23.7587 15.0258 23.8405C14.535 23.9222 14.0818 24.1552 13.7299 24.507C14.3779 25.1535 15.1467 25.6659 15.9927 26.0151C16.8388 26.3642 17.7452 26.5433 18.6606 26.542C19.5757 26.5406 20.4818 26.359 21.3267 26.0074C22.1718 25.6559 22.9393 25.1413 23.5854 24.493C26.2979 21.7654 26.2439 17.3375 23.5239 14.6175L14.1099 5.20244ZM12.9148 20.8793L5.67391 13.6384L12.7039 6.6085L19.9448 13.8494L12.9148 20.8793Z" fill="white"/>
<path d="M37.6275 22.147C36.1867 22.147 35.0852 21.7243 34.323 20.8788C33.5669 20.0333 33.1441 18.8783 33.0548 17.4136L35.3412 16.842C35.4543 19.1283 36.2164 20.2715 37.6275 20.2715C38.7707 20.2715 39.3423 19.6999 39.3423 18.5567C39.3423 18.2174 39.2947 17.9048 39.1994 17.619C39.1101 17.3272 38.9702 17.0623 38.7796 16.8241C38.5891 16.58 38.4164 16.3865 38.2616 16.2436C38.1068 16.0947 37.8955 15.9132 37.6275 15.6988L34.7696 13.4125C34.2456 13.0016 33.8259 12.4806 33.5103 11.8495C33.2007 11.2124 33.0459 10.489 33.0459 9.67927C33.0459 8.50037 33.4121 7.5626 34.1444 6.86598C34.8768 6.16936 35.8473 5.82104 37.0559 5.82104C38.3539 5.82104 39.384 6.13959 40.1461 6.77667C40.9142 7.4078 41.3875 8.30388 41.5661 9.46492C41.584 9.58996 41.6048 9.76262 41.6287 9.98292L39.3423 10.5545C39.3363 10.4533 39.3215 10.3015 39.2976 10.099C39.1964 9.37263 38.9672 8.79211 38.61 8.35747C38.2587 7.91687 37.7407 7.69657 37.0559 7.69657C36.5082 7.69657 36.0854 7.85137 35.7877 8.16098C35.49 8.46464 35.3412 8.89036 35.3412 9.43813C35.3412 10.3372 35.7222 11.0904 36.4844 11.6977L39.3423 13.984C40.8665 15.2165 41.6287 16.6902 41.6287 18.4049C41.6287 19.5779 41.2655 20.4948 40.5391 21.1557C39.8186 21.8166 38.8481 22.147 37.6275 22.147Z" fill="white"/>
<path d="M46.4068 20.2715C47.0081 20.2715 47.5797 20.1167 48.1215 19.8071V12.7337C48.0977 12.7218 48.0382 12.6861 47.9429 12.6265C47.8477 12.567 47.7792 12.5283 47.7375 12.5104C47.7018 12.4866 47.6393 12.4509 47.55 12.4032C47.4606 12.3556 47.3862 12.3229 47.3267 12.305C47.2731 12.2812 47.2016 12.2574 47.1123 12.2336C47.029 12.2038 46.9456 12.1829 46.8623 12.171C46.7849 12.1591 46.7015 12.1532 46.6122 12.1532C46.4217 12.1532 46.252 12.1978 46.1031 12.2871C45.9602 12.3705 45.8411 12.4717 45.7459 12.5908C45.6506 12.7099 45.5673 12.8796 45.4958 13.0999C45.4303 13.3202 45.3827 13.5166 45.3529 13.6893C45.3231 13.856 45.2993 14.0823 45.2815 14.3681C45.2636 14.6479 45.2517 14.8652 45.2457 15.02C45.2457 15.1748 45.2457 15.3922 45.2457 15.672C45.2457 15.6839 45.2457 15.6929 45.2457 15.6988C45.2457 15.8 45.2457 15.9638 45.2457 16.19C45.2457 16.4163 45.2457 16.6336 45.2457 16.842C45.2457 17.0504 45.2457 17.2469 45.2457 17.4314C45.2517 17.8304 45.2696 18.1816 45.2993 18.4853C45.335 18.783 45.3916 19.0777 45.469 19.3695C45.5524 19.6553 45.6715 19.8785 45.8263 20.0393C45.987 20.1941 46.1805 20.2715 46.4068 20.2715ZM48.1215 25.4158V20.9592C47.7822 21.3105 47.4309 21.5963 47.0677 21.8166C46.7104 22.0369 46.2996 22.147 45.8352 22.147C45.3946 22.147 45.0016 22.0369 44.6563 21.8166C44.3169 21.5903 44.043 21.3016 43.8346 20.9503C43.6322 20.599 43.4625 20.1852 43.3256 19.7089C43.1946 19.2266 43.1023 18.7532 43.0487 18.2888C43.0011 17.8244 42.9772 17.3421 42.9772 16.842V15.1004C42.9772 14.5824 43.0011 14.1091 43.0487 13.6804C43.0963 13.2517 43.1827 12.829 43.3077 12.4122C43.4327 11.9954 43.5965 11.6441 43.7989 11.3583C44.0073 11.0666 44.2812 10.8344 44.6206 10.6617C44.9599 10.4831 45.3529 10.3938 45.7995 10.3938C46.0555 10.3938 46.2936 10.4295 46.5139 10.5009C46.7402 10.5664 46.9545 10.6736 47.157 10.8224C47.3654 10.9713 47.5261 11.1023 47.6393 11.2154C47.7583 11.3226 47.9191 11.4833 48.1215 11.6977V10.5545H50.4079V25.4158H48.1215Z" fill="white"/>
<path d="M53.8731 22.147C53.373 22.147 52.9711 21.9714 52.6675 21.6201C52.3638 21.2629 52.212 20.8223 52.212 20.2983V10.5545H54.4983V19.6017C54.4983 19.8398 54.5698 20.0333 54.7127 20.1822C54.8615 20.3311 55.052 20.4055 55.2843 20.4055C55.4093 20.4055 55.5314 20.3906 55.6504 20.3608C55.7695 20.3311 55.8856 20.2804 55.9987 20.209C56.1178 20.1316 56.2101 20.0721 56.2756 20.0304C56.3411 19.9827 56.4334 19.9053 56.5525 19.7982C56.6775 19.691 56.7549 19.6255 56.7847 19.6017V10.5545H59.071V21.9863H56.7847V20.7538C56.5584 20.9503 56.3917 21.0932 56.2845 21.1825C56.1833 21.2718 56.0255 21.3938 55.8112 21.5487C55.5968 21.6975 55.4063 21.8077 55.2396 21.8791C55.0788 21.9446 54.8764 22.0041 54.6323 22.0577C54.3882 22.1173 54.1351 22.147 53.8731 22.147Z" fill="white"/>
<path d="M64.1975 20.2715C64.3582 20.2715 64.513 20.2239 64.6619 20.1286C64.8167 20.0333 64.9328 19.9411 65.0102 19.8518C65.0876 19.7624 65.1829 19.6434 65.296 19.4945C65.3138 19.4647 65.3287 19.4439 65.3406 19.432V16.2704C65.2454 16.3359 65.0876 16.4371 64.8673 16.574C64.647 16.711 64.4713 16.8241 64.3404 16.9134C64.2094 16.9968 64.0516 17.1159 63.867 17.2707C63.6824 17.4195 63.5395 17.5654 63.4383 17.7083C63.3371 17.8452 63.2478 18.0149 63.1704 18.2174C63.093 18.4198 63.0543 18.6312 63.0543 18.8515C63.0543 19.7982 63.4353 20.2715 64.1975 20.2715ZM63.0543 22.147C62.4172 22.147 61.8754 21.8731 61.4288 21.3254C60.9882 20.7717 60.7679 20.1495 60.7679 19.4588C60.7679 18.9051 60.8602 18.4019 61.0448 17.9494C61.2353 17.4969 61.4348 17.1367 61.6432 16.8688C61.8516 16.5949 62.1999 16.315 62.6881 16.0293C63.1763 15.7375 63.5455 15.538 63.7956 15.4309C64.0456 15.3237 64.4803 15.1481 65.0995 14.9039C65.2067 14.8623 65.2871 14.8295 65.3406 14.8057V13.984C65.3406 13.4065 65.2603 12.9599 65.0995 12.6444C64.9387 12.3229 64.6381 12.1621 64.1975 12.1621C63.8045 12.1621 63.5217 12.299 63.349 12.5729C63.1823 12.8409 63.087 13.213 63.0632 13.6893C63.0573 13.7548 63.0543 13.8531 63.0543 13.984H60.7679C60.7798 12.8885 61.0865 12.0162 61.6878 11.3672C62.2892 10.7182 63.1257 10.3938 64.1975 10.3938C65.2632 10.3938 66.0998 10.7242 66.7071 11.3851C67.3204 12.04 67.627 12.9064 67.627 13.984V19.1283C67.627 20.3191 67.7252 21.2718 67.9217 21.9863H65.6443L65.3406 20.2715C65.2216 20.5097 65.1233 20.6942 65.0459 20.8252C64.9745 20.9562 64.8673 21.12 64.7244 21.3164C64.5815 21.507 64.4386 21.6558 64.2957 21.763C64.1528 21.8642 63.9742 21.9535 63.7598 22.0309C63.5455 22.1083 63.3103 22.147 63.0543 22.147Z" fill="white"/>
<path d="M69.6008 21.9863V10.5545H71.8871V12.0817C72.1193 11.6292 72.4557 11.2362 72.8963 10.9028C73.3429 10.5634 73.8371 10.3938 74.3789 10.3938C74.3967 10.3938 74.5188 10.4057 74.7451 10.4295V12.957C74.3223 12.7903 73.8996 12.7069 73.4768 12.7069C73.0005 12.7069 72.6165 12.8498 72.3247 13.1356C72.033 13.4214 71.8871 13.7995 71.8871 14.2698V21.9863H69.6008Z" fill="white"/>
<path d="M78.9427 22.147C78.3889 22.147 77.9067 22.0518 77.4958 21.8612C77.091 21.6707 76.7665 21.4236 76.5223 21.12C76.2842 20.8104 76.0907 20.4174 75.9418 19.9411C75.793 19.4588 75.6888 18.9795 75.6292 18.5032C75.5756 18.0209 75.5429 17.4612 75.531 16.8241C75.5131 16.324 75.5131 15.8238 75.531 15.3237C75.5489 14.7283 75.5876 14.2014 75.6471 13.7429C75.7126 13.2785 75.8227 12.829 75.9775 12.3943C76.1323 11.9597 76.3318 11.6024 76.5759 11.3226C76.826 11.0427 77.1505 10.8195 77.5494 10.6528C77.9543 10.4801 78.4247 10.3938 78.9605 10.3938C79.4487 10.3938 79.8774 10.4592 80.2466 10.5902C80.6217 10.7153 80.9313 10.9088 81.1754 11.1708C81.4255 11.4268 81.6309 11.7126 81.7917 12.0281C81.9584 12.3437 82.0834 12.7277 82.1668 13.1802C82.2501 13.6268 82.3067 14.0674 82.3365 14.502C82.3722 14.9367 82.39 15.4368 82.39 16.0025V16.2704H77.8173V16.842C77.8173 16.9194 77.8173 17.0414 77.8173 17.2082C77.8054 17.4285 77.8025 17.6577 77.8084 17.8958C77.8203 18.1281 77.8322 18.3573 77.8441 18.5835C77.856 18.8098 77.8888 19.0271 77.9424 19.2355C77.996 19.4379 78.0615 19.6166 78.1389 19.7714C78.2163 19.9262 78.3234 20.0482 78.4604 20.1375C78.6033 20.2269 78.77 20.2715 78.9605 20.2715C79.1987 20.2715 79.3952 20.2269 79.55 20.1375C79.7048 20.0423 79.8179 19.9024 79.8894 19.7178C79.9668 19.5332 80.0203 19.3486 80.0501 19.1641C80.0799 18.9795 80.0977 18.7473 80.1037 18.4674V17.9852H82.3722V18.4406C82.3186 19.6612 82.0179 20.5841 81.4701 21.2093C80.9224 21.8344 80.0799 22.147 78.9427 22.147ZM77.8173 15.1272H80.0858V14.4395C80.0799 14.1359 80.062 13.8709 80.0322 13.6447C80.0025 13.4184 79.9489 13.1922 79.8715 12.9659C79.8 12.7396 79.6869 12.567 79.5321 12.4479C79.3773 12.3288 79.1868 12.2693 78.9605 12.2693C78.7283 12.2693 78.5318 12.3318 78.3711 12.4568C78.2163 12.5819 78.1002 12.7635 78.0228 13.0016C77.9513 13.2338 77.9007 13.4631 77.8709 13.6893C77.8412 13.9156 77.8233 14.1865 77.8173 14.502V15.1272Z" fill="white"/>
<path d="M88.3203 22.147C86.8794 22.147 85.7779 21.7243 85.0158 20.8788C84.2596 20.0333 83.8369 18.8783 83.7476 17.4136L86.0339 16.842C86.1471 19.1283 86.9092 20.2715 88.3203 20.2715C89.4635 20.2715 90.035 19.6999 90.035 18.5567C90.035 18.2174 89.9874 17.9048 89.8921 17.619C89.8028 17.3272 89.6629 17.0623 89.4724 16.8241C89.2819 16.58 89.1092 16.3865 88.9544 16.2436C88.7996 16.0947 88.5882 15.9132 88.3203 15.6988L85.4623 13.4125C84.9384 13.0016 84.5186 12.4806 84.2031 11.8495C83.8934 11.2124 83.7386 10.489 83.7386 9.67927C83.7386 8.50037 84.1048 7.5626 84.8372 6.86598C85.5695 6.16936 86.54 5.82104 87.7487 5.82104C89.0467 5.82104 90.0767 6.13959 90.8388 6.77667C91.6069 7.4078 92.0803 8.30388 92.2589 9.46492C92.2767 9.58996 92.2976 9.76262 92.3214 9.98292L90.035 10.5545C90.0291 10.4533 90.0142 10.3015 89.9904 10.099C89.8892 9.37263 89.6599 8.79211 89.3027 8.35747C88.9514 7.91687 88.4334 7.69657 87.7487 7.69657C87.2009 7.69657 86.7782 7.85137 86.4805 8.16098C86.1828 8.46464 86.0339 8.89036 86.0339 9.43813C86.0339 10.3372 86.415 11.0904 87.1771 11.6977L90.035 13.984C91.5593 15.2165 92.3214 16.6902 92.3214 18.4049C92.3214 19.5779 91.9582 20.4948 91.2318 21.1557C90.5114 21.8166 89.5409 22.147 88.3203 22.147Z" fill="white"/>
<path d="M97.0638 22.147C96.1647 22.147 95.5098 21.9178 95.099 21.4593C94.6941 21.0009 94.4857 20.3072 94.4738 19.3784V12.2693H93.3306V10.5545H94.4738V6.55339H96.7601V10.5545H98.4749V12.2693H96.7601V18.9408C96.7601 19.3992 96.8227 19.7356 96.9477 19.95C97.0727 20.1643 97.3258 20.2715 97.7068 20.2715C97.8735 20.2715 98.1296 20.2417 98.4749 20.1822V22.0399C97.9033 22.1113 97.4329 22.147 97.0638 22.147Z" fill="white"/>
<path d="M105.923 21.0753C105.394 21.7898 104.515 22.147 103.289 22.147C102.062 22.147 101.184 21.7898 100.654 21.0753C100.124 20.3608 99.8592 19.3308 99.8592 17.9852V14.5556C99.8592 13.21 100.124 12.18 100.654 11.4655C101.184 10.751 102.062 10.3938 103.289 10.3938C104.515 10.3938 105.394 10.751 105.923 11.4655C106.453 12.18 106.718 13.21 106.718 14.5556V17.9852C106.718 19.3308 106.453 20.3608 105.923 21.0753ZM102.86 20.2001C102.985 20.2477 103.128 20.2715 103.289 20.2715C103.45 20.2715 103.589 20.2477 103.709 20.2001C103.834 20.1524 103.935 20.0959 104.012 20.0304C104.096 19.9589 104.164 19.8577 104.218 19.7267C104.271 19.5898 104.313 19.4707 104.343 19.3695C104.372 19.2683 104.393 19.1224 104.405 18.9319C104.417 18.7413 104.423 18.5925 104.423 18.4853C104.429 18.3722 104.432 18.2055 104.432 17.9852V14.5556C104.432 14.3353 104.429 14.1716 104.423 14.0644C104.423 13.9513 104.417 13.7995 104.405 13.6089C104.393 13.4184 104.372 13.2725 104.343 13.1713C104.313 13.0701 104.271 12.954 104.218 12.823C104.164 12.6861 104.096 12.5848 104.012 12.5193C103.935 12.4479 103.834 12.3884 103.709 12.3407C103.589 12.2931 103.45 12.2693 103.289 12.2693C103.128 12.2693 102.985 12.2931 102.86 12.3407C102.741 12.3884 102.64 12.4479 102.556 12.5193C102.479 12.5848 102.414 12.6861 102.36 12.823C102.306 12.954 102.265 13.0701 102.235 13.1713C102.205 13.2725 102.184 13.4184 102.172 13.6089C102.16 13.7995 102.152 13.9513 102.146 14.0644C102.146 14.1716 102.146 14.3353 102.146 14.5556V17.9852C102.146 18.2055 102.146 18.3722 102.146 18.4853C102.152 18.5925 102.16 18.7413 102.172 18.9319C102.184 19.1224 102.205 19.2683 102.235 19.3695C102.265 19.4707 102.306 19.5898 102.36 19.7267C102.414 19.8577 102.479 19.9589 102.556 20.0304C102.64 20.0959 102.741 20.1524 102.86 20.2001Z" fill="white"/>
<path d="M108.594 21.9863V10.5545H110.88V11.787C111.22 11.4774 111.496 11.2422 111.711 11.0814C111.925 10.9147 112.22 10.7599 112.595 10.617C112.976 10.4682 113.381 10.3938 113.81 10.3938C114.298 10.3938 114.694 10.5724 114.997 10.9296C115.301 11.2869 115.453 11.7245 115.453 12.2425V21.9863H113.167V13.4125C113.167 13.0135 113.11 12.7248 112.997 12.5461C112.884 12.3616 112.654 12.2693 112.309 12.2693C112.113 12.2693 111.916 12.311 111.72 12.3943C111.529 12.4717 111.386 12.5461 111.291 12.6176C111.196 12.6831 111.059 12.7903 110.88 12.9391V21.9863H108.594Z" fill="white"/>
<path d="M120.686 22.147C120.133 22.147 119.65 22.0518 119.24 21.8612C118.835 21.6707 118.51 21.4236 118.266 21.12C118.028 20.8104 117.834 20.4174 117.686 19.9411C117.537 19.4588 117.433 18.9795 117.373 18.5032C117.319 18.0209 117.287 17.4612 117.275 16.8241C117.257 16.324 117.257 15.8238 117.275 15.3237C117.293 14.7283 117.331 14.2014 117.391 13.7429C117.456 13.2785 117.567 12.829 117.721 12.3943C117.876 11.9597 118.076 11.6024 118.32 11.3226C118.57 11.0427 118.894 10.8195 119.293 10.6528C119.698 10.4801 120.168 10.3938 120.704 10.3938C121.193 10.3938 121.621 10.4592 121.99 10.5902C122.366 10.7153 122.675 10.9088 122.919 11.1708C123.169 11.4268 123.375 11.7126 123.535 12.0281C123.702 12.3437 123.827 12.7277 123.911 13.1802C123.994 13.6268 124.051 14.0674 124.08 14.502C124.116 14.9367 124.134 15.4368 124.134 16.0025V16.2704H119.561V16.842C119.561 16.9194 119.561 17.0414 119.561 17.2082C119.549 17.4285 119.546 17.6577 119.552 17.8958C119.564 18.1281 119.576 18.3573 119.588 18.5835C119.6 18.8098 119.633 19.0271 119.686 19.2355C119.74 19.4379 119.805 19.6166 119.883 19.7714C119.96 19.9262 120.067 20.0482 120.204 20.1375C120.347 20.2269 120.514 20.2715 120.704 20.2715C120.942 20.2715 121.139 20.2269 121.294 20.1375C121.449 20.0423 121.562 19.9024 121.633 19.7178C121.711 19.5332 121.764 19.3486 121.794 19.1641C121.824 18.9795 121.842 18.7473 121.848 18.4674V17.9852H124.116V18.4406C124.062 19.6612 123.762 20.5841 123.214 21.2093C122.666 21.8344 121.824 22.147 120.686 22.147ZM119.561 15.1272H121.83V14.4395C121.824 14.1359 121.806 13.8709 121.776 13.6447C121.746 13.4184 121.693 13.1922 121.615 12.9659C121.544 12.7396 121.431 12.567 121.276 12.4479C121.121 12.3288 120.931 12.2693 120.704 12.2693C120.472 12.2693 120.276 12.3318 120.115 12.4568C119.96 12.5819 119.844 12.7635 119.767 13.0016C119.695 13.2338 119.645 13.4631 119.615 13.6893C119.585 13.9156 119.567 14.1865 119.561 14.502V15.1272Z" fill="white"/>
</svg>
