<svg width="21" height="17" viewBox="0 0 21 17" fill="none" xmlns="http://www.w3.org/2000/svg">
<path d="M8.10449 2.52637L8 2.57129L7.44043 2.80664C7.28932 2.86053 7.1543 2.93351 7.04102 3.00098C6.97984 3.03741 6.9188 3.07668 6.86328 3.11133C6.80589 3.14714 6.75218 3.18034 6.69824 3.21191L6.66895 3.22949C6.57106 3.29611 6.4831 3.33911 6.32129 3.43359C6.18256 3.51461 6.01406 3.62249 5.85938 3.77539V3.77441C5.76461 3.86403 5.66538 3.93854 5.52051 4.05566C5.38811 4.16271 5.23004 4.29671 5.09082 4.46777L5.08496 4.47559L5.08008 4.48242C4.99728 4.59205 4.90978 4.67653 4.77539 4.8252C4.66372 4.94873 4.53385 5.10559 4.42871 5.30078C4.25398 5.57188 4.04054 5.89583 3.89844 6.27539C3.76253 6.54398 3.67944 6.8301 3.6123 7.06055L3.39453 7.80957L4.16602 7.69434C4.34234 7.66814 4.48965 7.64556 4.63184 7.63574L4.77344 7.63086C5.56617 7.63089 6.34357 7.86028 7.01562 8.29297C7.68778 8.72579 8.2275 9.34499 8.57129 10.0801C8.87217 10.7234 9.01192 11.4318 8.97949 12.1416L8.95508 12.4453C8.87332 13.1541 8.62094 13.8288 8.22363 14.4102L8.04492 14.6543C7.6067 15.2076 7.04255 15.6389 6.40527 15.9131L6.12793 16.0215C5.47064 16.25 4.76964 16.3075 4.08789 16.1924L3.79688 16.1328C3.12176 15.9681 2.49761 15.6352 1.97949 15.165L1.76465 14.9551C1.20836 14.3736 0.823496 13.6422 0.65625 12.8447L0.577148 12.4668C0.57659 12.4622 0.57575 12.4577 0.575195 12.4531L0.545898 12.1621L0.544922 12.1504L0.518555 11.791C0.496904 11.4005 0.491836 10.9166 0.517578 10.3584C0.558967 9.61976 0.664943 8.761 0.901367 7.86035C0.996196 7.51956 1.10652 7.17345 1.23535 6.83203L1.37109 6.49219C1.59573 6.00786 1.78198 5.58357 2.05371 5.19727L2.06641 5.17969L2.07715 5.16016C2.31429 4.75059 2.62628 4.38115 2.96777 4.00293L2.98047 3.98828L2.99219 3.97363C3.11822 3.81045 3.27303 3.66452 3.4541 3.51172C3.6144 3.37646 3.83837 3.20113 4.01953 3.03809C4.17171 2.90847 4.34047 2.79898 4.52637 2.6875L5.10938 2.33789L5.11914 2.33203C5.25672 2.23839 5.40612 2.16617 5.5752 2.09668C5.71637 2.03866 5.92732 1.95982 6.09766 1.88379L6.09863 1.88477C6.48958 1.72981 6.7089 1.61978 6.92969 1.57812L6.94629 1.5752L6.96289 1.57129C7.24837 1.4976 7.4629 1.44498 7.67871 1.38965L7.81738 1.35449L8.10449 2.52637ZM19.6201 2.52637L19.5156 2.57129L18.9561 2.80664C18.805 2.86054 18.6699 2.93352 18.5566 3.00098C18.4954 3.03742 18.4344 3.07667 18.3789 3.11133C18.3215 3.14716 18.2678 3.18033 18.2139 3.21191L18.1846 3.22949C18.0867 3.29611 17.9988 3.33909 17.8369 3.43359C17.6982 3.51462 17.5297 3.62246 17.375 3.77539V3.77441C17.2802 3.86404 17.181 3.93851 17.0361 4.05566C16.9037 4.16272 16.7457 4.29669 16.6064 4.46777L16.6006 4.47559L16.5957 4.48242C16.513 4.59197 16.4262 4.67674 16.292 4.8252C16.1791 4.95006 16.0461 5.10848 15.9404 5.30664C15.7664 5.57653 15.5551 5.8986 15.4141 6.27539C15.2782 6.54397 15.1951 6.83011 15.1279 7.06055L14.9102 7.80957L15.6816 7.69434C15.858 7.66814 16.0053 7.64556 16.1475 7.63574L16.2891 7.63086C17.0818 7.63087 17.8592 7.86027 18.5312 8.29297C19.1194 8.67166 19.6064 9.19274 19.9492 9.80957L20.0869 10.0801C20.4307 10.8153 20.5641 11.6352 20.4707 12.4453C20.3889 13.1541 20.1366 13.8288 19.7393 14.4102L19.5605 14.6543C19.1223 15.2076 18.5582 15.6389 17.9209 15.9131L17.6436 16.0215C16.9862 16.25 16.2853 16.3075 15.6035 16.1924L15.3125 16.1328C14.6374 15.9681 14.0132 15.6352 13.4951 15.165L13.2803 14.9551C12.724 14.3736 12.3391 13.6422 12.1719 12.8447L12.0928 12.4668C12.0922 12.4622 12.0914 12.4577 12.0908 12.4531L12.0615 12.1621L12.0605 12.1504L12.0342 11.791C12.0125 11.4006 12.0075 10.9166 12.0332 10.3584C12.0746 9.61977 12.1806 8.761 12.417 7.86035C12.5118 7.51958 12.6222 7.17344 12.751 6.83203L12.8867 6.49219C13.1114 6.00784 13.2976 5.58358 13.5693 5.19727L13.582 5.17969L13.5938 5.16016C13.8309 4.75071 14.142 4.38106 14.4834 4.00293L14.4961 3.98926L14.5078 3.97363C14.6338 3.81096 14.7887 3.66537 14.9697 3.5127C15.1305 3.37714 15.3537 3.20143 15.5352 3.03809L15.5361 3.03906C15.6882 2.90964 15.8563 2.79983 16.042 2.68848L16.625 2.33887L16.6357 2.33203C16.7728 2.23835 16.9224 2.16722 17.0918 2.09766C17.2336 2.03944 17.4421 1.96082 17.6133 1.88379L17.6143 1.88477C17.9074 1.76856 18.1042 1.67789 18.2773 1.62207L18.4453 1.57812L18.4619 1.5752L18.4785 1.57129C18.764 1.4976 18.9785 1.44498 19.1943 1.38965L19.333 1.35449L19.6201 2.52637Z" fill="#F97968" stroke="#F97968"/>
</svg>
